<svg width="21" height="20" viewBox="0 0 21 20" fill="none" xmlns="http://www.w3.org/2000/svg">
<path d="M19.378 3.73434H15.3476C15.5319 3.37093 15.6425 2.95739 15.6425 2.5188C15.6302 1.12782 14.5734 0 13.2832 0H7.71679C6.41428 0 5.35752 1.12782 5.35752 2.5188C5.35752 2.95739 5.46811 3.37093 5.65243 3.73434H1.622C0.712697 3.73434 0 4.67419 0 5.87719V9.3609C0 10 0.221182 10.614 0.577531 11.0025V17.8446C0.577531 19.0476 1.29023 19.9875 2.19953 19.9875H18.8005C19.7098 19.9875 20.4225 19.0476 20.4225 17.8446V11.015C20.7788 10.614 21 10.0125 21 9.3609V5.87719C21 4.67419 20.2873 3.73434 19.378 3.73434ZM7.71679 1.37845H13.2832C13.873 1.37845 14.3523 1.89223 14.3523 2.5188C14.3523 3.14536 13.873 3.65915 13.2832 3.65915H7.71679C7.12697 3.65915 6.64775 3.14536 6.64775 2.5188C6.64775 1.89223 7.12697 1.37845 7.71679 1.37845ZM19.1937 17.8571C19.1937 18.3459 18.9602 18.6967 18.8005 18.6967H2.19953C2.03979 18.6967 1.80632 18.3584 1.80632 17.8571V11.7544L5.40667 13.5589C6.40199 14.0601 7.44646 14.3985 8.51551 14.5739C8.58923 14.9749 8.78584 15.3509 9.08075 15.6516C9.46167 16.0401 9.97776 16.2531 10.5061 16.2531C11.4892 16.2531 12.3125 15.5263 12.4968 14.5865C13.6027 14.411 14.6595 14.0727 15.6179 13.584C16.8098 12.9825 18.014 12.3684 19.206 11.7669V17.8571H19.1937ZM9.57226 14.1855V13.8095C9.57226 13.7845 9.57226 13.7719 9.57226 13.7594C9.58455 13.6216 9.60913 13.5088 9.67057 13.396C9.81802 13.0827 10.1375 12.8697 10.4939 12.8697C10.7396 12.8697 10.9731 12.9699 11.1451 13.1454C11.2188 13.2205 11.2803 13.3083 11.3171 13.396C11.3786 13.5088 11.4032 13.6466 11.4154 13.7845V14.1855C11.4154 14.386 11.354 14.5614 11.2557 14.7118C11.096 14.9624 10.8133 15.1253 10.4939 15.1253C10.2481 15.1253 10.0146 15.0251 9.8426 14.8496C9.79345 14.7995 9.75658 14.7619 9.71972 14.7118C9.6337 14.5489 9.57226 14.3734 9.57226 14.1855ZM19.7712 9.37343C19.7712 9.77444 19.6115 10.0752 19.464 10.1754L19.4394 10.188C19.3534 10.2256 19.2797 10.2757 19.1937 10.3133C17.8297 11.0025 16.4535 11.7043 15.0895 12.3935C14.254 12.8195 13.3815 13.1078 12.4599 13.2707C12.3616 12.9198 12.1896 12.6065 11.9315 12.3559C11.5506 11.9674 11.0345 11.7544 10.4939 11.7544C9.57226 11.7544 8.78584 12.381 8.54008 13.2581C7.63078 13.0952 6.75834 12.7945 5.91047 12.3684L1.80632 10.3008L1.54827 10.1754C1.54827 10.1754 1.53599 10.1754 1.51141 10.1504C1.37624 10.0501 1.22879 9.74937 1.22879 9.3609V5.87719C1.22879 5.37594 1.46226 5.03759 1.622 5.03759H19.378C19.5377 5.03759 19.7712 5.36341 19.7712 5.87719V9.37343V9.37343Z" fill="white"/>
</svg>
