<svg width="19" height="18" viewBox="0 0 19 18" fill="none" xmlns="http://www.w3.org/2000/svg">
<path d="M2.06931 0.337664C1.84244 0.118549 1.53859 -0.00269521 1.2232 4.54723e-05C0.907807 0.00278615 0.606108 0.129293 0.383083 0.352318C0.160058 0.575343 0.0335513 0.877042 0.0308106 1.19243C0.0280699 1.50783 0.149314 1.81168 0.36843 2.03855L7.3151 8.98522L0.367227 15.9319C0.252339 16.0429 0.1607 16.1756 0.097658 16.3223C0.0346159 16.4691 0.00143333 16.6269 4.54175e-05 16.7867C-0.00134249 16.9464 0.0290923 17.1048 0.0895746 17.2526C0.150057 17.4004 0.239375 17.5347 0.352317 17.6477C0.465259 17.7606 0.599564 17.8499 0.747395 17.9104C0.895225 17.9709 1.05362 18.0013 1.21334 18C1.37306 17.9986 1.5309 17.9654 1.67766 17.9023C1.82441 17.8393 1.95715 17.7477 2.06811 17.6328L9.01598 10.6861L15.9627 17.6328C16.1895 17.8519 16.4934 17.9731 16.8088 17.9704C17.1242 17.9676 17.4259 17.8411 17.6489 17.6181C17.8719 17.3951 17.9984 17.0934 18.0012 16.778C18.0039 16.4626 17.8827 16.1588 17.6635 15.9319L10.7169 8.98522L17.6635 2.03855C17.8827 1.81168 18.0039 1.50783 18.0012 1.19243C17.9984 0.877042 17.8719 0.575343 17.6489 0.352318C17.4259 0.129293 17.1242 0.00278615 16.8088 4.54723e-05C16.4934 -0.00269521 16.1895 0.118549 15.9627 0.337664L9.01598 7.28434L2.06931 0.336462V0.337664Z" fill="#C4C4C4"/>
</svg>
