<svg width="14" height="13" viewBox="0 0 14 13" fill="none" xmlns="http://www.w3.org/2000/svg">
<g clip-path="url(#clip0)">
<path d="M9.41096 9.24496C9.33514 9.24294 9.2599 9.21931 9.19301 9.16707L6.49106 6.92542C6.41697 6.85858 6.37379 6.77093 6.37648 6.67009L6.50503 1.85147C6.50983 1.6714 6.66531 1.53139 6.85485 1.53645C7.0444 1.5415 7.19219 1.6896 7.18739 1.86967L7.06287 6.53704L9.63862 8.67441C9.7796 8.79349 9.79697 8.99578 9.67201 9.12939C9.60166 9.2068 9.50194 9.24739 9.41096 9.24496Z" fill="#454545"/>
<path d="M6.55788 12.6357C2.94135 12.5392 0.074164 9.66606 0.16582 6.23036C0.257476 2.79466 3.27378 0.0784787 6.8903 0.174959C10.5068 0.271439 13.374 3.14458 13.2824 6.58028C13.1907 10.016 10.1744 12.7322 6.55788 12.6357ZM6.87301 0.823204C3.63557 0.736837 0.930233 3.173 0.848184 6.24856C0.766135 9.32413 3.33774 11.9011 6.57518 11.9874C9.81261 12.0738 12.518 9.63764 12.6 6.56207C12.6821 3.48651 10.1104 0.909571 6.87301 0.823204Z" fill="#454545"/>
</g>
<defs>
<clipPath id="clip0">
<rect width="13.1212" height="12.4652" fill="white" transform="translate(0.332031) rotate(1.52815)"/>
</clipPath>
</defs>
</svg>
