<svg width="49" height="48" viewBox="0 0 49 48" fill="none" xmlns="http://www.w3.org/2000/svg">
<path d="M14.5312 4.23535C13.7601 4.23643 13.0209 4.53949 12.4758 5.07806C11.9306 5.61664 11.6239 6.34676 11.623 7.10832C11.623 7.28038 11.6922 7.44539 11.8154 7.56705C11.9386 7.68871 12.1057 7.75706 12.2799 7.75706C12.4541 7.75706 12.6212 7.68871 12.7443 7.56705C12.8675 7.44539 12.9367 7.28038 12.9367 7.10832C12.9371 6.69059 13.1053 6.29009 13.4044 5.99471C13.7035 5.69933 14.109 5.53321 14.5319 5.53282H18.8067C18.9809 5.53282 19.1479 5.46447 19.2711 5.34281C19.3943 5.22115 19.4635 5.05614 19.4635 4.88409C19.4635 4.71203 19.3943 4.54702 19.2711 4.42536C19.1479 4.3037 18.9809 4.23535 18.8067 4.23535H14.5312Z" fill="white"/>
<path d="M22.7403 4.23535H21.5768C21.4026 4.23535 21.2355 4.3037 21.1123 4.42536C20.9891 4.54702 20.9199 4.71203 20.9199 4.88409C20.9199 5.05614 20.9891 5.22115 21.1123 5.34281C21.2355 5.46447 21.4026 5.53282 21.5768 5.53282H22.7403C22.9145 5.53282 23.0816 5.46447 23.2048 5.34281C23.328 5.22115 23.3972 5.05614 23.3972 4.88409C23.3972 4.71203 23.328 4.54702 23.2048 4.42536C23.0816 4.3037 22.9145 4.23535 22.7403 4.23535Z" fill="white"/>
<path d="M19.1354 3.30797H22.742C22.9162 3.30797 23.0833 3.23962 23.2065 3.11796C23.3296 2.9963 23.3988 2.83129 23.3988 2.65923C23.3988 2.48718 23.3296 2.32217 23.2065 2.20051C23.0833 2.07885 22.9162 2.0105 22.742 2.0105H19.1354C18.9612 2.0105 18.7941 2.07885 18.6709 2.20051C18.5477 2.32217 18.4785 2.48718 18.4785 2.65923C18.4785 2.83129 18.5477 2.9963 18.6709 3.11796C18.7941 3.23962 18.9612 3.30797 19.1354 3.30797Z" fill="white"/>
<path d="M10.0252 7.75644C10.1116 7.75658 10.1971 7.73991 10.2769 7.70737C10.3567 7.67483 10.4292 7.62706 10.4903 7.5668C10.5514 7.50654 10.5998 7.43497 10.6329 7.35619C10.6659 7.27741 10.6829 7.19297 10.6828 7.1077C10.6839 6.10041 11.0895 5.13467 11.8106 4.42234C12.5317 3.71001 13.5094 3.30924 14.5293 3.30797H16.2634C16.4376 3.30797 16.6047 3.23962 16.7278 3.11796C16.851 2.9963 16.9202 2.83129 16.9202 2.65923C16.9202 2.48718 16.851 2.32217 16.7278 2.20051C16.6047 2.07885 16.4376 2.0105 16.2634 2.0105H14.5293C13.1611 2.01217 11.8495 2.54975 10.8821 3.50532C9.91474 4.46089 9.37063 5.75642 9.36914 7.1077C9.36909 7.19285 9.38602 7.27717 9.41897 7.35585C9.45191 7.43453 9.50023 7.50603 9.56115 7.56627C9.62207 7.62651 9.69442 7.67431 9.77404 7.70694C9.85367 7.73957 9.93903 7.75639 10.0252 7.75644Z" fill="white"/>
<path d="M31.6159 4.23535C30.8447 4.23623 30.1053 4.53921 29.56 5.0778C29.0147 5.6164 28.7079 6.34663 28.707 7.10832C28.707 7.28038 28.7762 7.44539 28.8994 7.56705C29.0226 7.68871 29.1897 7.75706 29.3639 7.75706C29.5381 7.75706 29.7052 7.68871 29.8283 7.56705C29.9515 7.44539 30.0207 7.28038 30.0207 7.10832C30.0211 6.69059 30.1893 6.29009 30.4884 5.99471C30.7875 5.69933 31.193 5.53321 31.6159 5.53282H33.5966C33.7708 5.53282 33.9379 5.46447 34.061 5.34281C34.1842 5.22115 34.2534 5.05614 34.2534 4.88409C34.2534 4.71203 34.1842 4.54702 34.061 4.42536C33.9379 4.3037 33.7708 4.23535 33.5966 4.23535H31.6159Z" fill="white"/>
<path d="M35.707 4.88409C35.707 4.96929 35.7239 5.05367 35.7569 5.1324C35.7899 5.21113 35.8383 5.28267 35.8993 5.34292C35.9603 5.40317 36.0327 5.45095 36.1125 5.48354C36.1922 5.51612 36.2776 5.53287 36.3639 5.53282H39.8256C39.9998 5.53282 40.1669 5.46447 40.2901 5.34281C40.4133 5.22115 40.4825 5.05614 40.4825 4.88409C40.4825 4.71203 40.4133 4.54702 40.2901 4.42536C40.1669 4.3037 39.9998 4.23535 39.8256 4.23535H36.3639C36.2776 4.2353 36.1922 4.25205 36.1125 4.28463C36.0327 4.31722 35.9603 4.365 35.8993 4.42525C35.8383 4.4855 35.7899 4.55704 35.7569 4.63577C35.7239 4.7145 35.707 4.79888 35.707 4.88409Z" fill="white"/>
<path d="M38.9225 3.30797H39.8274C40.0016 3.30797 40.1687 3.23962 40.2919 3.11796C40.4151 2.9963 40.4843 2.83129 40.4843 2.65923C40.4843 2.48718 40.4151 2.32217 40.2919 2.20051C40.1687 2.07885 40.0016 2.0105 39.8274 2.0105H38.9225C38.7483 2.0105 38.5812 2.07885 38.458 2.20051C38.3348 2.32217 38.2656 2.48718 38.2656 2.65923C38.2656 2.83129 38.3348 2.9963 38.458 3.11796C38.5812 3.23962 38.7483 3.30797 38.9225 3.30797Z" fill="white"/>
<path d="M27.1119 7.75644C27.2861 7.75644 27.4532 7.68809 27.5764 7.56643C27.6996 7.44477 27.7688 7.27976 27.7688 7.1077C27.7699 6.10028 28.1755 5.13443 28.8968 4.42208C29.6181 3.70972 30.596 3.30905 31.616 3.30797H35.309C35.4832 3.30797 35.6502 3.23962 35.7734 3.11796C35.8966 2.9963 35.9658 2.83129 35.9658 2.65923C35.9658 2.48718 35.8966 2.32217 35.7734 2.20051C35.6502 2.07885 35.4832 2.0105 35.309 2.0105H31.616C30.2477 2.01197 28.9359 2.54947 27.9683 3.50506C27.0008 4.46065 26.4566 5.75629 26.4551 7.1077C26.455 7.19291 26.472 7.27729 26.505 7.35602C26.538 7.43475 26.5863 7.50629 26.6474 7.56654C26.7084 7.62679 26.7808 7.67457 26.8605 7.70716C26.9402 7.73974 27.0257 7.75649 27.1119 7.75644Z" fill="white"/>
<path d="M41.5729 23.5054C41.3987 23.5054 41.2316 23.5737 41.1084 23.6954C40.9852 23.817 40.916 23.9821 40.916 24.1541V26.3783C40.916 26.5504 40.9852 26.7154 41.1084 26.8371C41.2316 26.9587 41.3987 27.0271 41.5729 27.0271C41.7471 27.0271 41.9141 26.9587 42.0373 26.8371C42.1605 26.7154 42.2297 26.5504 42.2297 26.3783V24.1541C42.2297 23.9821 42.1605 23.817 42.0373 23.6954C41.9141 23.5737 41.7471 23.5054 41.5729 23.5054Z" fill="white"/>
<path d="M46.0787 42.4175H44.4835V19.3967L46.1572 19.198C46.327 19.1738 46.4805 19.085 46.5849 18.9505C46.6893 18.8161 46.7362 18.6466 46.7157 18.4784C46.6952 18.3101 46.6089 18.1565 46.4752 18.0503C46.3415 17.9441 46.171 17.8938 46.0003 17.9101L32.622 19.4975L32.2617 12.033C32.3773 11.982 32.4755 11.8991 32.5444 11.7943C32.6134 11.6894 32.6501 11.5671 32.6502 11.4421V9.21783C32.6501 9.0458 32.5809 8.88085 32.4577 8.75921C32.3345 8.63757 32.1675 8.56919 31.9934 8.56909H24.4866C24.3124 8.56909 24.1453 8.63744 24.0221 8.7591C23.8989 8.88076 23.8297 9.04577 23.8297 9.21783V11.4421C23.8295 11.5676 23.8663 11.6905 23.9355 11.7958C24.0047 11.9012 24.1035 11.9843 24.2197 12.0352L23.8106 20.5451L15.6308 21.5149L15.1759 12.0322C15.2912 11.9813 15.3892 11.8984 15.458 11.7937C15.5268 11.689 15.5635 11.5669 15.5636 11.4421V9.21783C15.5636 9.04577 15.4944 8.88076 15.3712 8.7591C15.248 8.63744 15.081 8.56909 14.9068 8.56909H7.39997C7.22576 8.56909 7.05869 8.63744 6.93551 8.7591C6.81233 8.88076 6.74312 9.04577 6.74312 9.21783V11.4421C6.74312 11.5678 6.78017 11.6909 6.84975 11.7962C6.91933 11.9015 7.01843 11.9845 7.13498 12.0352L5.93652 36.8569H5.43694C5.26819 36.8569 5.10592 36.9211 4.98376 37.036C4.86161 37.151 4.78895 37.308 4.78085 37.4745L4.54063 42.4175H2.91466C2.82839 42.4175 2.74295 42.4342 2.66324 42.4668C2.58352 42.4994 2.51109 42.5472 2.45009 42.6074C2.38908 42.6677 2.3407 42.7392 2.30771 42.8179C2.27472 42.8967 2.25776 42.981 2.25781 43.0662V45.2905C2.25776 45.3757 2.27472 45.4601 2.30771 45.5388C2.3407 45.6175 2.38908 45.6891 2.45009 45.7493C2.51109 45.8096 2.58352 45.8573 2.66324 45.8899C2.74295 45.9225 2.82839 45.9393 2.91466 45.9392H46.0787C46.165 45.9393 46.2504 45.9225 46.3301 45.8899C46.4099 45.8573 46.4823 45.8096 46.5433 45.7493C46.6043 45.6891 46.6527 45.6175 46.6857 45.5388C46.7187 45.4601 46.7356 45.3757 46.7356 45.2905V43.0662C46.7356 42.981 46.7187 42.8967 46.6857 42.8179C46.6527 42.7392 46.6043 42.6677 46.5433 42.6074C46.4823 42.5472 46.4099 42.4994 46.3301 42.4668C46.2504 42.4342 46.165 42.4175 46.0787 42.4175ZM39.4844 42.4175V35.6521C39.4844 35.4801 39.4152 35.3151 39.292 35.1934C39.1688 35.0717 39.0017 35.0034 38.8275 35.0034H34.3235C34.2372 35.0033 34.1518 35.0201 34.072 35.0527C33.9923 35.0853 33.9199 35.133 33.8589 35.1933C33.7979 35.2535 33.7495 35.3251 33.7165 35.4038C33.6835 35.4825 33.6666 35.5669 33.6666 35.6521V42.4175H32.6532V35.6521C32.6532 35.4801 32.584 35.3151 32.4608 35.1934C32.3376 35.0717 32.1706 35.0034 31.9964 35.0034H27.4923C27.406 35.0033 27.3206 35.0201 27.2409 35.0527C27.1611 35.0853 27.0887 35.133 27.0277 35.1933C26.9667 35.2535 26.9183 35.3251 26.8853 35.4038C26.8523 35.4825 26.8354 35.5669 26.8354 35.6521V42.4175H11.8102V23.2754L43.1698 19.5531V42.4175H39.4844ZM38.1707 42.4175H34.9803V36.3009H38.1707V42.4175ZM31.3395 42.4175H28.1491V36.3009H31.3395V42.4175ZM25.1464 9.86656H31.3395V10.7933H25.1464V9.86656ZM25.5353 12.0908H30.9495L31.3144 19.6532L25.1348 20.3868L25.5353 12.0908ZM8.05906 9.86656H14.2499V10.7933H8.05681L8.05906 9.86656ZM8.44979 12.0908H13.8637L14.3227 21.6698L8.82213 22.3234C8.65628 22.3435 8.50441 22.4252 8.39743 22.552C8.29046 22.6787 8.23642 22.841 8.24632 23.0058C8.25622 23.1705 8.32932 23.3253 8.45073 23.4387C8.57214 23.5521 8.73274 23.6155 8.89982 23.616C8.92629 23.616 8.95273 23.6145 8.97902 23.6116L10.4965 23.4311V36.8569H7.25171L8.44979 12.0908ZM6.06301 38.1544H10.4965V42.4175H5.85582L6.06301 38.1544ZM45.4219 44.6417H3.5715V43.715H45.4219V44.6417Z" fill="white"/>
<path d="M23.1636 32.8413H15.6568C15.4826 32.8413 15.3156 32.9097 15.1924 33.0313C15.0692 33.153 15 33.318 15 33.49C15 33.6621 15.0692 33.8271 15.1924 33.9488C15.3156 34.0704 15.4826 34.1388 15.6568 34.1388H23.1636C23.3378 34.1388 23.5049 34.0704 23.6281 33.9488C23.7513 33.8271 23.8205 33.6621 23.8205 33.49C23.8205 33.318 23.7513 33.153 23.6281 33.0313C23.5049 32.9097 23.3378 32.8413 23.1636 32.8413Z" fill="white"/>
<path d="M23.1636 28.3936H15.6568C15.4826 28.3936 15.3156 28.4619 15.1924 28.5836C15.0692 28.7052 15 28.8702 15 29.0423C15 29.2143 15.0692 29.3793 15.1924 29.501C15.3156 29.6227 15.4826 29.691 15.6568 29.691H23.1636C23.3378 29.691 23.5049 29.6227 23.6281 29.501C23.7513 29.3793 23.8205 29.2143 23.8205 29.0423C23.8205 28.8702 23.7513 28.7052 23.6281 28.5836C23.5049 28.4619 23.3378 28.3936 23.1636 28.3936Z" fill="white"/>
<path d="M23.1636 30.6155H15.6568C15.4826 30.6155 15.3156 30.6838 15.1924 30.8055C15.0692 30.9272 15 31.0922 15 31.2642C15 31.4363 15.0692 31.6013 15.1924 31.7229C15.3156 31.8446 15.4826 31.9129 15.6568 31.9129H23.1636C23.3378 31.9129 23.5049 31.8446 23.6281 31.7229C23.7513 31.6013 23.8205 31.4363 23.8205 31.2642C23.8205 31.0922 23.7513 30.9272 23.6281 30.8055C23.5049 30.6838 23.3378 30.6155 23.1636 30.6155Z" fill="white"/>
<path d="M30.8679 29.5056H28.6158C28.5296 29.5056 28.4441 29.5223 28.3644 29.5549C28.2847 29.5875 28.2123 29.6353 28.1513 29.6955C28.0903 29.7558 28.0419 29.8273 28.0089 29.906C27.9759 29.9848 27.9589 30.0691 27.959 30.1544V32.3786C27.9589 32.4638 27.9759 32.5482 28.0089 32.6269C28.0419 32.7056 28.0903 32.7772 28.1513 32.8374C28.2123 32.8977 28.2847 32.9455 28.3644 32.978C28.4441 33.0106 28.5296 33.0274 28.6158 33.0273H30.8679C31.0421 33.0273 31.2091 32.959 31.3323 32.8373C31.4555 32.7156 31.5247 32.5506 31.5247 32.3786V30.1544C31.5247 29.9823 31.4555 29.8173 31.3323 29.6956C31.2091 29.574 31.0421 29.5056 30.8679 29.5056ZM30.211 31.7298H29.2727V30.8031H30.211V31.7298Z" fill="white"/>
<path d="M37.7018 29.5056H35.4498C35.3635 29.5056 35.2781 29.5223 35.1984 29.5549C35.1187 29.5875 35.0462 29.6353 34.9852 29.6955C34.9242 29.7558 34.8759 29.8273 34.8429 29.906C34.8099 29.9848 34.7929 30.0691 34.793 30.1544V32.3786C34.7929 32.4638 34.8099 32.5482 34.8429 32.6269C34.8759 32.7056 34.9242 32.7772 34.9852 32.8374C35.0462 32.8977 35.1187 32.9455 35.1984 32.978C35.2781 33.0106 35.3635 33.0274 35.4498 33.0273H37.7018C37.8761 33.0273 38.0431 32.959 38.1663 32.8373C38.2895 32.7156 38.3587 32.5506 38.3587 32.3786V30.1544C38.3587 29.9823 38.2895 29.8173 38.1663 29.6956C38.0431 29.574 37.8761 29.5056 37.7018 29.5056ZM37.045 31.7298H36.1067V30.8031H37.045V31.7298Z" fill="white"/>
</svg>
