<svg width="26" height="26" viewBox="0 0 26 26" fill="none" xmlns="http://www.w3.org/2000/svg">
<path d="M7.60702 2.18359C7.18973 2.18419 6.7897 2.35024 6.49467 2.64535C6.19964 2.94046 6.03369 3.34052 6.0332 3.75781C6.0332 3.85209 6.07065 3.9425 6.13732 4.00917C6.20398 4.07583 6.2944 4.11328 6.38867 4.11328C6.48295 4.11328 6.57336 4.07583 6.64003 4.00917C6.70669 3.9425 6.74414 3.85209 6.74414 3.75781C6.74436 3.52892 6.83538 3.30947 6.99723 3.14762C7.15908 2.98577 7.37853 2.89475 7.60742 2.89453H9.92081C10.0151 2.89453 10.1055 2.85708 10.1722 2.79042C10.2388 2.72375 10.2763 2.63334 10.2763 2.53906C10.2763 2.44479 10.2388 2.35437 10.1722 2.28771C10.1055 2.22104 10.0151 2.18359 9.92081 2.18359H7.60702Z" fill="#1DAEFF"/>
<path d="M12.0496 2.18359H11.4199C11.3256 2.18359 11.2352 2.22104 11.1686 2.28771C11.1019 2.35437 11.0645 2.44479 11.0645 2.53906C11.0645 2.63334 11.1019 2.72375 11.1686 2.79042C11.2352 2.85708 11.3256 2.89453 11.4199 2.89453H12.0496C12.1439 2.89453 12.2343 2.85708 12.301 2.79042C12.3676 2.72375 12.4051 2.63334 12.4051 2.53906C12.4051 2.44479 12.3676 2.35437 12.301 2.28771C12.2343 2.22104 12.1439 2.18359 12.0496 2.18359Z" fill="#1DAEFF"/>
<path d="M10.0977 1.67578H12.0495C12.1438 1.67578 12.2342 1.63833 12.3008 1.57167C12.3675 1.505 12.405 1.41459 12.405 1.32031C12.405 1.22604 12.3675 1.13562 12.3008 1.06896C12.2342 1.00229 12.1438 0.964844 12.0495 0.964844H10.0977C10.0034 0.964844 9.91296 1.00229 9.8463 1.06896C9.77964 1.13562 9.74219 1.22604 9.74219 1.32031C9.74219 1.41459 9.77964 1.505 9.8463 1.57167C9.91296 1.63833 10.0034 1.67578 10.0977 1.67578Z" fill="#1DAEFF"/>
<path d="M5.16952 4.11328C5.21624 4.11336 5.26252 4.10422 5.3057 4.08639C5.34889 4.06856 5.38814 4.04239 5.42119 4.00937C5.45425 3.97635 5.48047 3.93714 5.49835 3.89397C5.51623 3.8508 5.52542 3.80454 5.52539 3.75781C5.52598 3.20588 5.74547 2.67671 6.13571 2.28639C6.52595 1.89607 7.05508 1.67648 7.60702 1.67578H8.54545C8.63973 1.67578 8.73015 1.63833 8.79681 1.57167C8.86347 1.505 8.90092 1.41459 8.90092 1.32031C8.90092 1.22604 8.86347 1.13562 8.79681 1.06896C8.73015 1.00229 8.63973 0.964844 8.54545 0.964844H7.60702C6.86659 0.965758 6.15676 1.26032 5.63324 1.78392C5.10972 2.30752 4.81526 3.01739 4.81445 3.75781C4.81443 3.80447 4.82359 3.85067 4.84142 3.89378C4.85925 3.9369 4.88539 3.97607 4.91836 4.00908C4.95133 4.04209 4.99048 4.06828 5.03358 4.08616C5.07667 4.10404 5.12286 4.11325 5.16952 4.11328Z" fill="#1DAEFF"/>
<path d="M16.8535 2.18359C16.4362 2.18408 16.036 2.35009 15.7409 2.64521C15.4458 2.94032 15.2798 3.34045 15.2793 3.75781C15.2793 3.85209 15.3167 3.9425 15.3834 4.00917C15.4501 4.07583 15.5405 4.11328 15.6348 4.11328C15.729 4.11328 15.8195 4.07583 15.8861 4.00917C15.9528 3.9425 15.9902 3.85209 15.9902 3.75781C15.9904 3.52892 16.0815 3.30947 16.2433 3.14762C16.4052 2.98577 16.6246 2.89475 16.8535 2.89453H17.9254C18.0197 2.89453 18.1101 2.85708 18.1768 2.79042C18.2434 2.72375 18.2809 2.63334 18.2809 2.53906C18.2809 2.44479 18.2434 2.35437 18.1768 2.28771C18.1101 2.22104 18.0197 2.18359 17.9254 2.18359H16.8535Z" fill="#1DAEFF"/>
<path d="M19.0684 2.53906C19.0683 2.58575 19.0775 2.63199 19.0954 2.67513C19.1132 2.71827 19.1394 2.75746 19.1724 2.79048C19.2054 2.82349 19.2446 2.84967 19.2878 2.86753C19.3309 2.88538 19.3771 2.89456 19.4238 2.89453H21.2973C21.3915 2.89453 21.4819 2.85708 21.5486 2.79042C21.6153 2.72375 21.6527 2.63334 21.6527 2.53906C21.6527 2.44479 21.6153 2.35437 21.5486 2.28771C21.4819 2.22104 21.3915 2.18359 21.2973 2.18359H19.4238C19.3771 2.18357 19.3309 2.19274 19.2878 2.2106C19.2446 2.22845 19.2054 2.25464 19.1724 2.28765C19.1394 2.32066 19.1132 2.35986 19.0954 2.403C19.0775 2.44614 19.0683 2.49237 19.0684 2.53906Z" fill="#1DAEFF"/>
<path d="M20.8066 1.67578H21.2964C21.3907 1.67578 21.4811 1.63833 21.5477 1.57167C21.6144 1.505 21.6518 1.41459 21.6518 1.32031C21.6518 1.22604 21.6144 1.13562 21.5477 1.06896C21.4811 1.00229 21.3907 0.964844 21.2964 0.964844H20.8066C20.7124 0.964844 20.622 1.00229 20.5553 1.06896C20.4886 1.13562 20.4512 1.22604 20.4512 1.32031C20.4512 1.41459 20.4886 1.505 20.5553 1.57167C20.622 1.63833 20.7124 1.67578 20.8066 1.67578Z" fill="#1DAEFF"/>
<path d="M14.416 4.11328C14.5103 4.11328 14.6007 4.07583 14.6674 4.00917C14.734 3.9425 14.7715 3.85209 14.7715 3.75781C14.7721 3.20581 14.9916 2.67658 15.382 2.28625C15.7723 1.89592 16.3015 1.67637 16.8535 1.67578H18.8521C18.9463 1.67578 19.0368 1.63833 19.1034 1.57167C19.1701 1.505 19.2075 1.41459 19.2075 1.32031C19.2075 1.22604 19.1701 1.13562 19.1034 1.06896C19.0368 1.00229 18.9463 0.964844 18.8521 0.964844H16.8535C16.113 0.96565 15.4031 1.26017 14.8795 1.78378C14.3559 2.30738 14.0614 3.01732 14.0605 3.75781C14.0605 3.8045 14.0697 3.85074 14.0876 3.89388C14.1054 3.93702 14.1316 3.97621 14.1646 4.00923C14.1976 4.04224 14.2368 4.06842 14.28 4.08628C14.3231 4.10413 14.3693 4.11331 14.416 4.11328Z" fill="#1DAEFF"/>
<path d="M22.2422 12.7422C22.1479 12.7422 22.0575 12.7796 21.9908 12.8463C21.9242 12.913 21.8867 13.0034 21.8867 13.0977V14.3164C21.8867 14.4107 21.9242 14.5011 21.9908 14.5678C22.0575 14.6344 22.1479 14.6719 22.2422 14.6719C22.3365 14.6719 22.4269 14.6344 22.4935 14.5678C22.5602 14.5011 22.5977 14.4107 22.5977 14.3164V13.0977C22.5977 13.0034 22.5602 12.913 22.4935 12.8463C22.4269 12.7796 22.3365 12.7422 22.2422 12.7422Z" fill="#1DAEFF"/>
<path d="M24.6797 23.1055H23.8164V10.4915L24.7221 10.3826C24.814 10.3694 24.8971 10.3207 24.9536 10.247C25.0101 10.1733 25.0355 10.0805 25.0244 9.98829C25.0133 9.8961 24.9666 9.81192 24.8943 9.75374C24.8219 9.69555 24.7296 9.66799 24.6372 9.67694L17.3973 10.5467L17.2023 6.45659C17.2648 6.42867 17.3179 6.38325 17.3552 6.32579C17.3926 6.26834 17.4124 6.20132 17.4125 6.13281V4.91406C17.4124 4.8198 17.375 4.72942 17.3083 4.66277C17.2417 4.59612 17.1513 4.55865 17.057 4.55859H12.9945C12.9002 4.55859 12.8098 4.59604 12.7432 4.66271C12.6765 4.72937 12.639 4.81979 12.639 4.91406V6.13281C12.6389 6.20161 12.6588 6.26896 12.6963 6.32666C12.7338 6.38437 12.7872 6.42993 12.8501 6.45781L12.6287 11.1207L8.20198 11.6521L7.9558 6.45619C8.01823 6.42826 8.07125 6.38287 8.10848 6.3255C8.14571 6.26812 8.16556 6.20121 8.16563 6.13281V4.91406C8.16563 4.81979 8.12817 4.72937 8.06151 4.66271C7.99485 4.59604 7.90443 4.55859 7.81016 4.55859H3.74766C3.65338 4.55859 3.56297 4.59604 3.4963 4.66271C3.42964 4.72937 3.39219 4.81979 3.39219 4.91406V6.13281C3.39219 6.20172 3.41224 6.26914 3.44989 6.32685C3.48755 6.38456 3.54118 6.43006 3.60425 6.45781L2.95567 20.0587H2.68531C2.59399 20.0587 2.50617 20.0938 2.44006 20.1568C2.37396 20.2198 2.33463 20.3058 2.33025 20.3971L2.20025 23.1055H1.32031C1.27362 23.1055 1.22739 23.1147 1.18425 23.1325C1.14111 23.1504 1.10191 23.1766 1.0689 23.2096C1.03589 23.2426 1.0097 23.2818 0.991848 23.3249C0.973993 23.3681 0.964817 23.4143 0.964844 23.461V24.6798C0.964817 24.7264 0.973993 24.7727 0.991848 24.8158C1.0097 24.859 1.03589 24.8981 1.0689 24.9312C1.10191 24.9642 1.14111 24.9904 1.18425 25.0082C1.22739 25.0261 1.27362 25.0352 1.32031 25.0352H24.6797C24.7264 25.0352 24.7726 25.0261 24.8158 25.0082C24.8589 24.9904 24.8981 24.9642 24.9311 24.9312C24.9641 24.8981 24.9903 24.859 25.0082 24.8158C25.026 24.7727 25.0352 24.7264 25.0352 24.6798V23.461C25.0352 23.4143 25.026 23.3681 25.0082 23.3249C24.9903 23.2818 24.9641 23.2426 24.9311 23.2096C24.8981 23.1766 24.8589 23.1504 24.8158 23.1325C24.7726 23.1147 24.7264 23.1055 24.6797 23.1055ZM21.111 23.1055V19.3985C21.111 19.3042 21.0735 19.2138 21.0069 19.1471C20.9402 19.0805 20.8498 19.043 20.7555 19.043H18.318C18.2713 19.043 18.2251 19.0522 18.182 19.07C18.1388 19.0879 18.0996 19.1141 18.0666 19.1471C18.0336 19.1801 18.0074 19.2193 17.9896 19.2624C17.9717 19.3056 17.9625 19.3518 17.9625 19.3985V23.1055H17.4141V19.3985C17.4141 19.3042 17.3767 19.2138 17.31 19.1471C17.2433 19.0805 17.1529 19.043 17.0586 19.043H14.6211C14.5745 19.043 14.5282 19.0522 14.4851 19.07C14.4419 19.0879 14.4027 19.1141 14.3697 19.1471C14.3367 19.1801 14.3105 19.2193 14.2927 19.2624C14.2748 19.3056 14.2656 19.3518 14.2657 19.3985V23.1055H6.13438V12.6168L23.1055 10.5772V23.1055H21.111ZM20.4 23.1055H18.6735V19.754H20.4V23.1055ZM16.7032 23.1055H14.9766V19.754H16.7032V23.1055ZM13.3516 5.26953H16.7032V5.77734H13.3516V5.26953ZM13.562 6.48828H16.4921L16.6896 10.632L13.3453 11.034L13.562 6.48828ZM4.10434 5.26953H7.45469V5.77734H4.10313L4.10434 5.26953ZM4.3158 6.48828H7.24567L7.49409 11.737L4.5173 12.0951C4.42754 12.1061 4.34535 12.1509 4.28746 12.2204C4.22957 12.2899 4.20033 12.3788 4.20568 12.469C4.21104 12.5593 4.2506 12.6441 4.3163 12.7063C4.38201 12.7684 4.46892 12.8031 4.55934 12.8034C4.57366 12.8034 4.58797 12.8026 4.6022 12.801L5.42344 12.7021V20.0587H3.66742L4.3158 6.48828ZM3.02412 20.7696H5.42344V23.1055H2.912L3.02412 20.7696ZM24.3242 24.3243H1.67578V23.8165H24.3242V24.3243Z" fill="#1DAEFF"/>
<path d="M12.2793 17.8574H8.2168C8.12252 17.8574 8.03211 17.8949 7.96544 17.9615C7.89878 18.0282 7.86133 18.1186 7.86133 18.2129C7.86133 18.3072 7.89878 18.3976 7.96544 18.4642C8.03211 18.5309 8.12252 18.5684 8.2168 18.5684H12.2793C12.3736 18.5684 12.464 18.5309 12.5307 18.4642C12.5973 18.3976 12.6348 18.3072 12.6348 18.2129C12.6348 18.1186 12.5973 18.0282 12.5307 17.9615C12.464 17.8949 12.3736 17.8574 12.2793 17.8574Z" fill="#1DAEFF"/>
<path d="M12.2793 15.4199H8.2168C8.12252 15.4199 8.03211 15.4574 7.96544 15.524C7.89878 15.5907 7.86133 15.6811 7.86133 15.7754C7.86133 15.8697 7.89878 15.9601 7.96544 16.0267C8.03211 16.0934 8.12252 16.1309 8.2168 16.1309H12.2793C12.3736 16.1309 12.464 16.0934 12.5307 16.0267C12.5973 15.9601 12.6348 15.8697 12.6348 15.7754C12.6348 15.6811 12.5973 15.5907 12.5307 15.524C12.464 15.4574 12.3736 15.4199 12.2793 15.4199Z" fill="#1DAEFF"/>
<path d="M12.2793 16.6387H8.2168C8.12252 16.6387 8.03211 16.6761 7.96544 16.7428C7.89878 16.8095 7.86133 16.8999 7.86133 16.9941C7.86133 17.0884 7.89878 17.1788 7.96544 17.2455C8.03211 17.3122 8.12252 17.3496 8.2168 17.3496H12.2793C12.3736 17.3496 12.464 17.3122 12.5307 17.2455C12.5973 17.1788 12.6348 17.0884 12.6348 16.9941C12.6348 16.8999 12.5973 16.8095 12.5307 16.7428C12.464 16.6761 12.3736 16.6387 12.2793 16.6387Z" fill="#1DAEFF"/>
<path d="M16.4492 16.0293H15.2305C15.1838 16.0293 15.1375 16.0384 15.0944 16.0563C15.0513 16.0742 15.0121 16.1003 14.9791 16.1334C14.946 16.1664 14.9199 16.2056 14.902 16.2487C14.8842 16.2918 14.875 16.3381 14.875 16.3848V17.6035C14.875 17.6502 14.8842 17.6964 14.902 17.7396C14.9199 17.7827 14.946 17.8219 14.9791 17.8549C15.0121 17.8879 15.0513 17.9141 15.0944 17.932C15.1375 17.9498 15.1838 17.959 15.2305 17.959H16.4492C16.5435 17.959 16.6339 17.9215 16.7006 17.8549C16.7672 17.7882 16.8047 17.6978 16.8047 17.6035V16.3848C16.8047 16.2905 16.7672 16.2001 16.7006 16.1334C16.6339 16.0667 16.5435 16.0293 16.4492 16.0293ZM16.0938 17.248H15.5859V16.7402H16.0938V17.248Z" fill="#1DAEFF"/>
<path d="M20.1465 16.0293H18.9277C18.881 16.0293 18.8348 16.0384 18.7917 16.0563C18.7485 16.0742 18.7093 16.1003 18.6763 16.1334C18.6433 16.1664 18.6171 16.2056 18.5993 16.2487C18.5814 16.2918 18.5722 16.3381 18.5723 16.3848V17.6035C18.5722 17.6502 18.5814 17.6964 18.5993 17.7396C18.6171 17.7827 18.6433 17.8219 18.6763 17.8549C18.7093 17.8879 18.7485 17.9141 18.7917 17.932C18.8348 17.9498 18.881 17.959 18.9277 17.959H20.1465C20.2408 17.959 20.3312 17.9215 20.3978 17.8549C20.4645 17.7882 20.502 17.6978 20.502 17.6035V16.3848C20.502 16.2905 20.4645 16.2001 20.3978 16.1334C20.3312 16.0667 20.2408 16.0293 20.1465 16.0293ZM19.791 17.248H19.2832V16.7402H19.791V17.248Z" fill="#1DAEFF"/>
</svg>
