<svg width="12" height="12" viewBox="0 0 12 12" fill="none" xmlns="http://www.w3.org/2000/svg">
<path d="M5.68148 4.96691e-07C5.89477 5.15337e-07 6.10805 5.33983e-07 6.32134 5.52629e-07C6.35333 0.00533389 6.38666 0.0120006 6.41865 0.0146672C6.87988 0.0453339 7.33178 0.126667 7.77168 0.265334C9.10605 0.688001 10.1725 1.47733 10.9643 2.632C11.5255 3.44933 11.8548 4.356 11.9628 5.34267C11.9747 5.45467 11.9867 5.568 11.9987 5.68C11.9987 5.89333 11.9987 6.10667 11.9987 6.32C11.9934 6.35467 11.9867 6.38933 11.9841 6.424C11.9441 6.99467 11.8281 7.55067 11.6255 8.08533C11.1203 9.41733 10.2565 10.4533 9.02874 11.176C7.90499 11.84 6.68526 12.096 5.38821 11.968C4.51774 11.8827 3.70325 11.6147 2.95275 11.1653C1.77302 10.4587 0.922539 9.46667 0.415985 8.188C0.00807596 7.15867 -0.0959008 6.092 0.0867253 5C0.240025 4.07867 0.593279 3.24 1.14116 2.484C1.64505 1.78933 2.26891 1.22533 3.01274 0.796C3.73658 0.38 4.51374 0.124 5.34556 0.0346671C5.45753 0.0240005 5.56951 0.0120005 5.68148 4.96691e-07ZM11.2509 6.004C11.2549 3.11467 8.8981 0.753334 6.00674 0.749334C3.11272 0.746667 0.754577 3.10267 0.751911 5.99867C0.750577 8.88933 3.10339 11.244 5.99874 11.2507C8.88477 11.2573 11.2469 8.89733 11.2509 6.004Z" fill="#1DAEFF"/>
<path d="M6.36212 9.74662C6.12084 9.74662 5.89023 9.74662 5.65028 9.74662C5.65028 9.71862 5.65028 9.69195 5.65028 9.66662C5.65028 9.43595 5.64895 9.20395 5.65295 8.97328C5.65428 8.91862 5.63695 8.90262 5.58363 8.89595C5.1384 8.83995 4.74249 8.67595 4.43456 8.33728C4.16662 8.04395 4.01998 7.68928 3.932 7.30662C3.93067 7.30128 3.93334 7.29328 3.93467 7.28128C4.29326 7.18795 4.65317 7.09328 5.02109 6.99728C5.03442 7.05462 5.04642 7.10795 5.05975 7.16128C5.12107 7.39462 5.22505 7.60262 5.425 7.74928C5.59296 7.87195 5.78492 7.92128 5.98887 7.92128C6.10085 7.92128 6.21682 7.91462 6.32613 7.88928C6.75537 7.79062 6.90333 7.32528 6.76603 6.98795C6.71671 6.86795 6.62606 6.78528 6.51409 6.73329C6.3048 6.63595 6.09418 6.54129 5.87823 6.45995C5.55697 6.33729 5.23038 6.22662 4.92911 6.05595C4.47455 5.79729 4.21461 5.40395 4.14662 4.88929C4.07864 4.37862 4.19728 3.90929 4.50921 3.49462C4.75449 3.16929 5.09841 3.01195 5.48499 2.93195C5.65028 2.89729 5.65162 2.90129 5.65162 2.73462C5.65162 2.57462 5.65162 2.41595 5.65162 2.25195C5.89023 2.25195 6.12218 2.25195 6.36212 2.25195C6.36212 2.46795 6.36212 2.67995 6.36212 2.89862C6.39678 2.90529 6.42611 2.91195 6.45677 2.91595C7.2126 3.03595 7.66983 3.48795 7.89111 4.20395C7.90044 4.23329 7.90044 4.25329 7.86712 4.26662C7.55652 4.39329 7.24726 4.52129 6.93133 4.65062C6.906 4.59062 6.88334 4.53329 6.85801 4.47729C6.77803 4.29462 6.67539 4.12662 6.52075 3.99595C6.22749 3.74929 5.75959 3.77195 5.52631 4.04795C5.37301 4.22929 5.34235 4.43729 5.41034 4.66129C5.44366 4.77195 5.51431 4.86262 5.61696 4.91195C5.85557 5.02529 6.09818 5.12929 6.33946 5.23595C6.64339 5.37062 6.95799 5.48529 7.25259 5.63995C7.76447 5.90795 8.03641 6.34795 8.0804 6.92395C8.11106 7.32795 8.04041 7.71328 7.82846 8.06395C7.57652 8.48128 7.1966 8.72128 6.73004 8.83462C6.62873 8.85862 6.52609 8.87595 6.42211 8.89062C6.37679 8.89728 6.36346 8.91328 6.36479 8.95728C6.36745 9.19062 6.36612 9.42395 6.36612 9.65728C6.36212 9.68662 6.36212 9.71195 6.36212 9.74662Z" fill="#1DAEFF"/>
</svg>
