<svg width="9" height="13" viewBox="0 0 9 13" fill="none" xmlns="http://www.w3.org/2000/svg">
<g clip-path="url(#clip0)">
<path d="M4.50458 2.26254C4.0077 2.26254 3.54287 2.44661 3.19024 2.7764C2.84563 3.10619 2.65329 3.55103 2.65329 4.02655C2.65329 5.00059 3.48677 5.79056 4.49657 5.79056C5.50636 5.79056 6.33984 5.00059 6.33984 4.02655C6.33984 3.05251 5.51438 2.26254 4.50458 2.26254ZM5.33806 4.83186C5.12168 5.03894 4.82515 5.16932 4.49657 5.16932C3.8394 5.16932 3.31046 4.65546 3.30244 4.02655C3.30244 3.71976 3.42266 3.43599 3.64706 3.22124C3.87145 3.00649 4.16798 2.89145 4.48855 2.89145H4.49657C5.15373 2.89145 5.68267 3.40531 5.68267 4.03422C5.68267 4.341 5.54643 4.62478 5.33806 4.83186ZM4.50458 2.26254C4.0077 2.26254 3.54287 2.44661 3.19024 2.7764C2.84563 3.10619 2.65329 3.55103 2.65329 4.02655C2.65329 5.00059 3.48677 5.79056 4.49657 5.79056C5.50636 5.79056 6.33984 5.00059 6.33984 4.02655C6.33984 3.05251 5.51438 2.26254 4.50458 2.26254ZM5.33806 4.83186C5.12168 5.03894 4.82515 5.16932 4.49657 5.16932C3.8394 5.16932 3.31046 4.65546 3.30244 4.02655C3.30244 3.71976 3.42266 3.43599 3.64706 3.22124C3.87145 3.00649 4.16798 2.89145 4.48855 2.89145H4.49657C5.15373 2.89145 5.68267 3.40531 5.68267 4.03422C5.68267 4.341 5.54643 4.62478 5.33806 4.83186ZM8.43958 2.23953C7.81446 1.1351 6.83673 0.421829 5.53842 0.122714C5.37012 0.0766962 5.19381 0.0536873 5.03352 0.0383481C4.96139 0.0306785 4.88926 0.0153392 4.81714 0.00766962L4.79309 0H4.19202L4.15997 0.00766962C4.14394 0.00766962 4.13592 0.0153392 4.1199 0.0153392C4.11188 0.0153392 4.11188 0.0153392 4.10387 0.0153392C3.38259 0.0766962 2.7174 0.283776 2.13236 0.644248C0.801997 1.45723 0.0887294 2.63835 0.00858692 4.14926C-0.0314843 4.97758 0.1849 5.78289 0.689798 6.61888C1.33895 7.70029 1.99612 8.78938 2.64527 9.86313C2.73343 10.0088 2.82159 10.1546 2.90974 10.3003L2.98989 10.4307L3.35053 11.0289C3.3906 11.0903 3.4467 11.1746 3.51081 11.2513C3.75925 11.5274 4.10387 11.6732 4.48054 11.6732C4.52061 11.6732 4.56869 11.6732 4.60877 11.6655C5.04153 11.6271 5.43423 11.3817 5.65062 11.0212L5.89906 10.6071C5.93913 10.5457 5.97119 10.4844 6.01126 10.423C6.12346 10.2389 6.23566 10.0472 6.34786 9.86313C6.989 8.80472 7.63815 7.73097 8.27128 6.67257C8.44759 6.37345 8.58383 6.10501 8.68802 5.85192C9.17689 4.5941 9.08873 3.3823 8.43958 2.23953ZM8.07893 5.62183C7.99078 5.84425 7.87056 6.08201 7.71028 6.35044C7.03708 7.47021 6.34786 8.61298 5.67466 9.72507C5.56246 9.91681 5.45026 10.1009 5.33005 10.2926L5.32203 10.3156L5.08161 10.7068C4.96139 10.8985 4.76905 11.0212 4.54465 11.0442C4.33628 11.0673 4.13592 10.9906 3.99968 10.8372C3.96763 10.7988 3.93557 10.7451 3.91153 10.7068L3.6711 10.3156L3.47074 9.98584C3.42266 9.90147 3.36656 9.81711 3.31847 9.73274C2.63726 8.60531 1.94002 7.45487 1.25881 6.31209C0.818026 5.58348 0.625684 4.88555 0.665755 4.18761C0.737883 2.86844 1.33094 1.88673 2.493 1.17345C2.98989 0.874336 3.55088 0.690265 4.16798 0.644248C4.20805 0.644248 4.24011 0.636578 4.26415 0.628908H4.73699C4.80111 0.636578 4.87324 0.651917 4.93735 0.659587C5.09763 0.682596 5.24189 0.697935 5.37813 0.736283C6.49211 0.98938 7.32559 1.59528 7.86255 2.53864C8.42355 3.52035 8.49568 4.55575 8.07893 5.62183ZM4.50458 2.26254C4.0077 2.26254 3.54287 2.44661 3.19024 2.7764C2.84563 3.10619 2.65329 3.55103 2.65329 4.02655C2.65329 5.00059 3.48677 5.79056 4.49657 5.79056C5.50636 5.79056 6.33984 5.00059 6.33984 4.02655C6.33984 3.05251 5.51438 2.26254 4.50458 2.26254ZM5.33806 4.83186C5.12168 5.03894 4.82515 5.16932 4.49657 5.16932C3.8394 5.16932 3.31046 4.65546 3.30244 4.02655C3.30244 3.71976 3.42266 3.43599 3.64706 3.22124C3.87145 3.00649 4.16798 2.89145 4.48855 2.89145H4.49657C5.15373 2.89145 5.68267 3.40531 5.68267 4.03422C5.68267 4.341 5.54643 4.62478 5.33806 4.83186Z" fill="#1DAEFF"/>
<path d="M8.08035 11.3588C8.08035 12.2945 6.54161 13.0001 4.506 13.0001C2.47038 13.0001 0.931641 12.2945 0.931641 11.3588C0.931641 11.3435 0.931641 11.3282 0.931641 11.3128C0.931641 11.3051 0.931641 11.2898 0.931641 11.2821C0.931641 11.2668 0.931641 11.2591 0.939655 11.2438C0.939655 11.2284 0.947669 11.2131 0.947669 11.2054C0.947669 11.1901 0.955683 11.1748 0.955683 11.1594V11.1518C0.955683 11.1441 0.963698 11.1287 0.963698 11.1211C0.963698 11.1134 0.971712 11.0981 0.971712 11.0904C1.01178 10.9754 1.06788 10.868 1.14803 10.7683C1.15604 10.7529 1.16405 10.7453 1.18008 10.7299C1.23618 10.6686 1.3003 10.6072 1.37242 10.5459C1.38845 10.5382 1.40448 10.5228 1.4125 10.5075C1.42852 10.4998 1.43654 10.4845 1.45257 10.4768C1.4686 10.4692 1.48462 10.4538 1.50065 10.4461C1.51668 10.4385 1.53271 10.4231 1.54874 10.4155C1.63689 10.3541 1.74108 10.2928 1.84526 10.2391C1.86931 10.2314 1.88534 10.2161 1.90938 10.2084C1.96548 10.1777 2.02959 10.1547 2.08569 10.1317C2.24598 10.0703 2.42229 10.1317 2.51045 10.2697C2.5986 10.4155 2.53449 10.5995 2.37421 10.6609C2.35818 10.6686 2.33413 10.6762 2.31811 10.6839C2.30208 10.6916 2.27803 10.6992 2.26201 10.7069C2.24598 10.7146 2.22193 10.7223 2.20591 10.7299C2.18988 10.7376 2.17385 10.7453 2.14981 10.7529C2.13378 10.7606 2.11775 10.7683 2.10172 10.7759C2.08569 10.7836 2.06966 10.7913 2.05364 10.799C2.03761 10.8066 2.02158 10.8143 2.00555 10.822C1.98952 10.8296 1.97349 10.8373 1.96548 10.845C1.94945 10.8526 1.93342 10.8603 1.92541 10.868C1.90938 10.8756 1.90136 10.8833 1.88534 10.891C1.86129 10.9063 1.83725 10.9293 1.81321 10.9447C1.80519 10.9523 1.78917 10.96 1.78115 10.9677C1.77314 10.9754 1.75711 10.983 1.74909 10.9907C1.71704 11.0137 1.69299 11.0444 1.66895 11.0751C1.66094 11.0827 1.65292 11.0904 1.64491 11.0981C1.63689 11.1057 1.62888 11.1134 1.62888 11.1211C1.62087 11.1287 1.61285 11.1441 1.61285 11.1518C1.60484 11.1594 1.60484 11.1671 1.59682 11.1748C1.58079 11.1978 1.57278 11.2208 1.56477 11.2438C1.56477 11.2515 1.55675 11.2591 1.55675 11.2668C1.55675 11.2821 1.54874 11.2975 1.54874 11.3051C1.54874 11.3128 1.54874 11.3205 1.54874 11.3282C1.54874 11.7653 2.67073 12.3712 4.49798 12.3712C6.32523 12.3712 7.44722 11.7653 7.44722 11.3282C7.44722 11.3205 7.44722 11.3128 7.44722 11.3051C7.44722 11.2745 7.43921 11.2515 7.4312 11.2208C7.42318 11.2054 7.41517 11.1901 7.40715 11.1748C7.40715 11.1748 7.40715 11.1748 7.40715 11.1671C7.39914 11.1594 7.39914 11.1518 7.39112 11.1441C7.38311 11.1364 7.38311 11.1287 7.3751 11.1211C7.36708 11.1134 7.35907 11.1057 7.35105 11.0981C7.34304 11.0904 7.33503 11.0827 7.32701 11.0751C7.319 11.0674 7.31098 11.0597 7.30297 11.052C7.28694 11.0367 7.27091 11.0137 7.24687 10.9984C7.23885 10.9907 7.23084 10.983 7.21481 10.9754C7.2068 10.9677 7.19077 10.96 7.18275 10.9523C7.15871 10.937 7.13467 10.914 7.11063 10.8987C7.0946 10.891 7.08658 10.8833 7.07055 10.8756C7.05453 10.868 7.04651 10.8603 7.03048 10.8526C7.02247 10.845 7.02247 10.845 7.01446 10.845C6.99041 10.8296 6.96637 10.8143 6.94233 10.8066C6.9263 10.7989 6.91027 10.7913 6.89424 10.7836C6.87821 10.7759 6.86218 10.7683 6.84616 10.7606C6.83013 10.7529 6.8141 10.7453 6.79006 10.7376C6.77403 10.7299 6.758 10.7223 6.73396 10.7146C6.71793 10.7069 6.69389 10.6992 6.67786 10.6916C6.66183 10.6839 6.63779 10.6762 6.62176 10.6686C6.46147 10.6072 6.39736 10.4231 6.48552 10.2774C6.57367 10.1394 6.74998 10.078 6.91027 10.1394C6.91027 10.1394 6.91027 10.1394 6.91828 10.1394C7.0946 10.2161 7.25488 10.2928 7.39914 10.3848C7.41517 10.3925 7.4312 10.4078 7.45524 10.4155C7.47127 10.4308 7.4873 10.4385 7.50332 10.4538C7.52737 10.4768 7.55942 10.4922 7.58347 10.5152C7.5995 10.5305 7.61552 10.5459 7.63155 10.5535C7.64758 10.5689 7.66361 10.5842 7.67964 10.5919C7.69567 10.6072 7.7117 10.6225 7.71971 10.6302C7.73574 10.6456 7.75177 10.6609 7.75978 10.6762C7.77581 10.6916 7.79184 10.7069 7.80787 10.7299C7.81588 10.7453 7.83191 10.7529 7.83992 10.7683C7.83992 10.7683 7.83992 10.7683 7.83992 10.7759C7.84794 10.7913 7.86397 10.8066 7.87198 10.822C7.87999 10.8373 7.89602 10.8526 7.90404 10.868C7.91205 10.8756 7.92007 10.891 7.92007 10.8987C7.96014 10.96 7.99219 11.029 8.01624 11.0981C8.01624 11.1057 8.02425 11.1211 8.02425 11.1287C8.02425 11.1364 8.03226 11.1518 8.03226 11.1594V11.1671C8.04028 11.1824 8.04028 11.1978 8.04028 11.2131C8.04028 11.2284 8.04829 11.2438 8.04829 11.2515C8.04829 11.2668 8.04829 11.2745 8.05631 11.2898C8.05631 11.2975 8.05631 11.3128 8.05631 11.3205C8.08035 11.3282 8.08035 11.3435 8.08035 11.3588Z" fill="#1DAEFF"/>
</g>
<defs>
<clipPath id="clip0">
<rect width="9" height="13" fill="white"/>
</clipPath>
</defs>
</svg>
