<svg width="15" height="15" viewBox="0 0 15 15" fill="none" xmlns="http://www.w3.org/2000/svg">
<path d="M1 6.94351V5.19727C1 4.0927 1.89543 3.19727 3 3.19727H11.9997C13.1043 3.19727 13.9997 4.0927 13.9997 5.19727V6.94351C13.9997 7.30703 13.8349 7.65094 13.5515 7.87861C13.268 8.10627 13.1032 8.45018 13.1032 8.8137V12.0004C13.1032 13.1049 12.2078 14.0004 11.1032 14.0004H3.89653C2.79196 14.0004 1.89653 13.1049 1.89653 12.0004V8.8137C1.89653 8.45018 1.73167 8.10627 1.44827 7.87861C1.16486 7.65094 1 7.30703 1 6.94351Z" stroke="#1DAEFF" stroke-width="0.7" stroke-linecap="round" stroke-linejoin="round"/>
<path d="M9.07399 3.05259H5.92668C5.35988 3.05259 4.90039 2.5931 4.90039 2.02629C4.90039 1.45949 5.35988 1 5.92668 1H9.07399C9.64079 1 10.1003 1.45949 10.1003 2.02629C10.1003 2.5931 9.64079 3.05259 9.07399 3.05259Z" stroke="#1DAEFF" stroke-width="0.7"/>
<path d="M1.65039 7.84155H13.3501" stroke="#1DAEFF" stroke-width="0.7" stroke-linecap="round" stroke-linejoin="round"/>
<path d="M8.44916 7.84202C8.44916 8.4216 8.00715 8.86042 7.49919 8.86042C6.99124 8.86042 6.54922 8.4216 6.54922 7.84202C6.54922 7.26245 6.99124 6.82363 7.49919 6.82363C8.00715 6.82363 8.44916 7.26245 8.44916 7.84202Z" fill="white" stroke="#1DAEFF" stroke-width="0.7"/>
</svg>
