<svg width="18" height="18" viewBox="0 0 18 18" fill="none" xmlns="http://www.w3.org/2000/svg">
<path d="M16.8039 7.64314H10.3574V1.19671C10.3574 1.0101 10.2047 0.857422 10.0181 0.857422H7.98242C7.79582 0.857422 7.64314 1.0101 7.64314 1.19671V7.64314H1.19671C1.0101 7.64314 0.857422 7.79582 0.857422 7.98242V10.0181C0.857422 10.2047 1.0101 10.3574 1.19671 10.3574H7.64314V16.8039C7.64314 16.9905 7.79582 17.1431 7.98242 17.1431H10.0181C10.2047 17.1431 10.3574 16.9905 10.3574 16.8039V10.3574H16.8039C16.9905 10.3574 17.1431 10.2047 17.1431 10.0181V7.98242C17.1431 7.79582 16.9905 7.64314 16.8039 7.64314Z" fill="white"/>
</svg>
