<svg width="15" height="14" viewBox="0 0 15 14" fill="none" xmlns="http://www.w3.org/2000/svg">
<path d="M13.6494 8C13.8503 8 14.0162 8.17376 13.9987 8.37359C13.9201 9.32061 13.5446 10.1894 12.9594 10.8758C12.8284 11.0322 12.6014 11.0409 12.4529 10.9019L10.1035 8.5908C9.88521 8.37359 10.0337 8 10.3481 8H13.6494Z" stroke="#1DAEFF" stroke-width="0.7" stroke-miterlimit="10"/>
<path d="M13.4608 6H9.53685C9.24402 6 9 5.75605 9 5.46332V1.54065C9 1.21865 9.28307 0.964941 9.60518 1.00397C11.9088 1.27719 13.7243 3.10191 13.9976 5.39501C14.0269 5.72678 13.7829 6 13.4608 6Z" stroke="#1DAEFF" stroke-width="0.7" stroke-miterlimit="10"/>
<path d="M10.4843 11.3121C10.7437 11.5715 10.7212 12 10.4392 12.2368C9.4468 13.0263 8.18373 13.4999 6.81916 13.4999C3.60509 13.4999 1 10.8948 1 7.68074C1 4.7035 3.23293 2.24502 6.11996 1.90669C6.49211 1.86158 6.80788 2.1548 6.80788 2.51568V7.42136C6.80788 7.59052 6.87555 7.74841 6.98832 7.86118L10.4843 11.3121Z" stroke="#1DAEFF" stroke-width="0.7" stroke-miterlimit="10"/>
</svg>
