<svg width="14" height="15" viewBox="0 0 14 15" fill="none" xmlns="http://www.w3.org/2000/svg">
<g clip-path="url(#clip0)">
<path d="M13.5719 0.46833C13.4207 0.35367 13.2211 0.335566 13.0518 0.414017L0.290555 6.44271C0.115164 6.52719 0.00630075 6.69616 0.000252782 6.88928C-0.00579519 7.08239 0.0970203 7.25739 0.272411 7.34791L2.92142 8.7359C2.95166 8.754 2.9819 8.76004 3.01214 8.77211L5.70954 13.9921C5.70954 13.9921 5.70954 13.9921 5.70954 13.9982C5.70954 14.0042 5.71558 14.0042 5.71558 14.0102C5.72163 14.0163 5.72768 14.0284 5.73373 14.0344C5.73373 14.0404 5.73978 14.0404 5.73978 14.0465C5.74582 14.0525 5.75187 14.0585 5.75792 14.0706C5.76397 14.0766 5.76397 14.0766 5.77002 14.0827C5.77606 14.0887 5.78816 14.0947 5.79421 14.1008L5.80026 14.1068C5.81235 14.1128 5.82445 14.1189 5.83654 14.1249H5.84259C5.85469 14.1309 5.86678 14.1309 5.87888 14.137C5.88493 14.137 5.88493 14.137 5.89098 14.137C5.90912 14.137 5.92121 14.143 5.93936 14.143C5.95145 14.143 5.96355 14.143 5.9696 14.143C5.98169 14.143 5.98774 14.143 5.99984 14.137C6.00589 14.137 6.00589 14.137 6.01193 14.137C6.01798 14.137 6.02403 14.1309 6.03613 14.1309C6.04217 14.1309 6.04822 14.1249 6.04822 14.1249C6.05427 14.1249 6.06032 14.1189 6.06032 14.1189C6.07241 14.1128 6.09056 14.1008 6.10265 14.0947L6.1087 14.0887C6.1208 14.0766 6.13289 14.0706 6.13894 14.0585L6.14499 14.0525C6.15104 14.0465 6.15709 14.0404 6.15709 14.0344L7.82028 11.53L11.1043 13.3887C11.1829 13.4309 11.2676 13.4551 11.3523 13.4551C11.4249 13.4551 11.5035 13.437 11.57 13.4068C11.7212 13.3344 11.824 13.1956 11.8482 13.0326L13.7715 0.951108C13.8017 0.764031 13.7231 0.576955 13.5719 0.46833ZM6.4111 10.0997C6.38086 10.148 6.36272 10.2023 6.35062 10.2566C6.34457 10.2687 6.34457 10.2868 6.34457 10.2989L5.8305 13.0387L3.55646 8.63331L9.7012 4.84954L6.4111 10.0997ZM6.46553 12.6042L6.78003 10.9084L7.36668 11.2403L6.46553 12.6042ZM11.3462 12.8757L6.89494 10.3532L10.7777 4.15555C10.8443 4.04692 10.8261 3.90812 10.7414 3.8176C10.6507 3.72708 10.5116 3.70898 10.4028 3.77536L3.21172 8.21088C3.17544 8.20484 3.13915 8.20484 3.10286 8.21691L0.592954 6.90134L13.2211 0.939038L11.3462 12.8757Z" fill="#454545"/>
</g>
<defs>
<clipPath id="clip0">
<rect width="13.7773" height="13.7773" fill="white" transform="translate(0 0.365234)"/>
</clipPath>
</defs>
</svg>
