<svg width="14" height="13" viewBox="0 0 14 13" fill="none" xmlns="http://www.w3.org/2000/svg">
<g clip-path="url(#clip0)">
<path d="M9.97061 9.25873C9.89838 9.2568 9.82673 9.23321 9.76307 9.18091L7.19195 6.93669C7.12145 6.86976 7.08043 6.78193 7.08312 6.68081L7.21203 1.84871C7.21685 1.66814 7.36516 1.52754 7.54573 1.53235C7.7263 1.53717 7.86691 1.68548 7.86209 1.86605L7.73723 6.54647L10.1883 8.68629C10.3224 8.80552 10.3387 9.00834 10.2195 9.14249C10.1523 9.22021 10.0573 9.26104 9.97061 9.25873Z" fill="#1DAEFF"/>
<path d="M7.24646 12.6625C3.80115 12.5706 1.07344 9.69333 1.16536 6.24802C1.25727 2.80272 4.1345 0.0750073 7.57981 0.16692C11.0251 0.258832 13.7528 3.13607 13.6609 6.58137C13.569 10.0267 10.6918 12.7544 7.24646 12.6625ZM7.56247 0.816978C4.4783 0.7347 1.89769 3.1812 1.81541 6.26536C1.73314 9.34953 4.17964 11.9301 7.2638 12.0124C10.348 12.0947 12.9286 9.64819 13.0109 6.56403C13.0931 3.47987 10.6466 0.899256 7.56247 0.816978Z" fill="#1DAEFF"/>
</g>
<defs>
<clipPath id="clip0">
<rect width="12.5" height="12.5" fill="white" transform="translate(1.33203 0.000488281) rotate(1.52815)"/>
</clipPath>
</defs>
</svg>
