<svg width="10" height="15" viewBox="0 0 10 15" fill="none" xmlns="http://www.w3.org/2000/svg">
<g clip-path="url(#clip0)">
<path d="M4.59702 2.76305C4.08993 2.76305 3.61556 2.95813 3.25569 3.30764C2.904 3.65715 2.7077 4.12858 2.7077 4.63253C2.7077 5.66481 3.5583 6.50201 4.58884 6.50201C5.61937 6.50201 6.46997 5.66481 6.46997 4.63253C6.46997 3.60025 5.62755 2.76305 4.59702 2.76305ZM5.44762 5.48599C5.22679 5.70545 4.92417 5.84363 4.58884 5.84363C3.91817 5.84363 3.37837 5.29904 3.37019 4.63253C3.37019 4.3074 3.49287 4.00666 3.72188 3.77907C3.95089 3.55148 4.25351 3.42956 4.58066 3.42956H4.58884C5.2595 3.42956 5.79931 3.97415 5.79931 4.64066C5.79931 4.96579 5.66027 5.26653 5.44762 5.48599ZM4.59702 2.76305C4.08993 2.76305 3.61556 2.95813 3.25569 3.30764C2.904 3.65715 2.7077 4.12858 2.7077 4.63253C2.7077 5.66481 3.5583 6.50201 4.58884 6.50201C5.61937 6.50201 6.46997 5.66481 6.46997 4.63253C6.46997 3.60025 5.62755 2.76305 4.59702 2.76305ZM5.44762 5.48599C5.22679 5.70545 4.92417 5.84363 4.58884 5.84363C3.91817 5.84363 3.37837 5.29904 3.37019 4.63253C3.37019 4.3074 3.49287 4.00666 3.72188 3.77907C3.95089 3.55148 4.25351 3.42956 4.58066 3.42956H4.58884C5.2595 3.42956 5.79931 3.97415 5.79931 4.64066C5.79931 4.96579 5.66027 5.26653 5.44762 5.48599ZM8.61283 2.73866C7.97488 1.56821 6.97706 0.812284 5.65209 0.495285C5.48033 0.446516 5.3004 0.422132 5.13682 0.405875C5.06321 0.397747 4.9896 0.381491 4.91599 0.373363L4.89146 0.365234H4.27804L4.24533 0.373363C4.22897 0.373363 4.22079 0.381491 4.20443 0.381491C4.19625 0.381491 4.19625 0.381491 4.18808 0.381491C3.45198 0.446516 2.77313 0.665977 2.17608 1.048C0.818389 1.90959 0.0904716 3.16133 0.00868306 4.76258C-0.0322112 5.64043 0.188618 6.49389 0.703885 7.37986C1.36637 8.52593 2.03704 9.68013 2.69952 10.8181C2.78949 10.9725 2.87946 11.127 2.96943 11.2814L3.05121 11.4196L3.41926 12.0536C3.46016 12.1186 3.51741 12.208 3.58284 12.2893C3.83638 12.5819 4.18808 12.7363 4.57248 12.7363C4.61338 12.7363 4.66245 12.7363 4.70334 12.7282C5.145 12.6876 5.54576 12.4275 5.76659 12.0454L6.02014 11.6065C6.06103 11.5415 6.09375 11.4765 6.13464 11.4114C6.24915 11.2164 6.36365 11.0132 6.47815 10.8181C7.13246 9.69639 7.79495 8.55844 8.44108 7.43675C8.62101 7.11976 8.76005 6.83527 8.86638 6.56704C9.36529 5.23402 9.27532 3.94976 8.61283 2.73866ZM8.24478 6.32319C8.15482 6.55891 8.03213 6.81088 7.86856 7.09537C7.18153 8.28209 6.47815 9.49319 5.79113 10.6718C5.67663 10.875 5.56212 11.0701 5.43944 11.2733L5.43126 11.2976L5.18589 11.7122C5.06321 11.9154 4.86692 12.0454 4.63791 12.0698C4.42526 12.0942 4.22079 12.0129 4.08175 11.8504C4.04904 11.8097 4.01632 11.7528 3.99178 11.7122L3.74642 11.2976L3.54195 10.9481C3.49287 10.8587 3.43562 10.7693 3.38655 10.6799C2.69135 9.48506 1.97979 8.26583 1.28458 7.05473C0.834747 6.28255 0.638454 5.54289 0.679349 4.80322C0.752958 3.40517 1.35819 2.36477 2.54413 1.60885C3.05122 1.29185 3.62373 1.09677 4.25351 1.048C4.2944 1.048 4.32712 1.03987 4.35165 1.03175H4.8342C4.89963 1.03987 4.97324 1.05613 5.03868 1.06426C5.20225 1.08864 5.34947 1.1049 5.48851 1.14554C6.62537 1.41377 7.47597 2.0559 8.02396 3.05566C8.59647 4.09607 8.67008 5.19338 8.24478 6.32319ZM4.59702 2.76305C4.08993 2.76305 3.61556 2.95813 3.25569 3.30764C2.904 3.65715 2.7077 4.12858 2.7077 4.63253C2.7077 5.66481 3.5583 6.50201 4.58884 6.50201C5.61937 6.50201 6.46997 5.66481 6.46997 4.63253C6.46997 3.60025 5.62755 2.76305 4.59702 2.76305ZM5.44762 5.48599C5.22679 5.70545 4.92417 5.84363 4.58884 5.84363C3.91817 5.84363 3.37837 5.29904 3.37019 4.63253C3.37019 4.3074 3.49287 4.00666 3.72188 3.77907C3.95089 3.55148 4.25351 3.42956 4.58066 3.42956H4.58884C5.2595 3.42956 5.79931 3.97415 5.79931 4.64066C5.79931 4.96579 5.66027 5.26653 5.44762 5.48599Z" fill="#454545"/>
<path d="M8.24475 12.4029C8.24475 13.3945 6.67441 14.1423 4.59699 14.1423C2.51956 14.1423 0.949219 13.3945 0.949219 12.4029C0.949219 12.3866 0.949219 12.3704 0.949219 12.3541C0.949219 12.346 0.949219 12.3297 0.949219 12.3216C0.949219 12.3053 0.949219 12.2972 0.957398 12.2809C0.957398 12.2647 0.965576 12.2484 0.965576 12.2403C0.965576 12.224 0.973755 12.2078 0.973755 12.1915V12.1834C0.973755 12.1753 0.981934 12.159 0.981934 12.1509C0.981934 12.1428 0.990113 12.1265 0.990113 12.1184C1.03101 11.9965 1.08826 11.8827 1.17005 11.777C1.17823 11.7607 1.18641 11.7526 1.20276 11.7364C1.26002 11.6713 1.32545 11.6063 1.39906 11.5413C1.41541 11.5331 1.43177 11.5169 1.43995 11.5006C1.45631 11.4925 1.46449 11.4763 1.48084 11.4681C1.4972 11.46 1.51356 11.4437 1.52992 11.4356C1.54627 11.4275 1.56263 11.4112 1.57899 11.4031C1.66896 11.3381 1.77528 11.273 1.88161 11.2161C1.90614 11.208 1.9225 11.1918 1.94704 11.1836C2.00429 11.1511 2.06972 11.1267 2.12697 11.1024C2.29055 11.0373 2.47048 11.1024 2.56045 11.2487C2.65042 11.4031 2.58499 11.5982 2.42141 11.6632C2.40505 11.6713 2.38052 11.6795 2.36416 11.6876C2.3478 11.6957 2.32327 11.7038 2.30691 11.712C2.29055 11.7201 2.26601 11.7282 2.24966 11.7364C2.2333 11.7445 2.21694 11.7526 2.1924 11.7607C2.17605 11.7689 2.15969 11.777 2.14333 11.7851C2.12697 11.7932 2.11062 11.8014 2.09426 11.8095C2.0779 11.8176 2.06154 11.8258 2.04518 11.8339C2.02883 11.842 2.01247 11.8501 2.00429 11.8583C1.98793 11.8664 1.97158 11.8745 1.9634 11.8827C1.94704 11.8908 1.93886 11.8989 1.9225 11.907C1.89797 11.9233 1.87343 11.9477 1.84889 11.9639C1.84071 11.9721 1.82436 11.9802 1.81618 11.9883C1.808 11.9965 1.79164 12.0046 1.78346 12.0127C1.75075 12.0371 1.72621 12.0696 1.70167 12.1021C1.69349 12.1102 1.68532 12.1184 1.67714 12.1265C1.66896 12.1346 1.66078 12.1428 1.66078 12.1509C1.6526 12.159 1.64442 12.1753 1.64442 12.1834C1.63624 12.1915 1.63624 12.1997 1.62806 12.2078C1.61171 12.2322 1.60353 12.2566 1.59535 12.2809C1.59535 12.2891 1.58717 12.2972 1.58717 12.3053C1.58717 12.3216 1.57899 12.3378 1.57899 12.346C1.57899 12.3541 1.57899 12.3622 1.57899 12.3704C1.57899 12.8337 2.72403 13.4758 4.58881 13.4758C6.45359 13.4758 7.59862 12.8337 7.59862 12.3704C7.59862 12.3622 7.59862 12.3541 7.59862 12.346C7.59862 12.3135 7.59045 12.2891 7.58227 12.2566C7.57409 12.2403 7.56591 12.224 7.55773 12.2078C7.55773 12.2078 7.55773 12.2078 7.55773 12.1997C7.54955 12.1915 7.54955 12.1834 7.54137 12.1753C7.53319 12.1671 7.53319 12.159 7.52501 12.1509C7.51684 12.1428 7.50866 12.1346 7.50048 12.1265C7.4923 12.1184 7.48412 12.1102 7.47594 12.1021C7.46776 12.094 7.45958 12.0859 7.4514 12.0777C7.43505 12.0615 7.41869 12.0371 7.39415 12.0208C7.38597 12.0127 7.3778 12.0046 7.36144 11.9965C7.35326 11.9883 7.3369 11.9802 7.32872 11.9721C7.30419 11.9558 7.27965 11.9314 7.25511 11.9152C7.23875 11.907 7.23058 11.8989 7.21422 11.8908C7.19786 11.8827 7.18968 11.8745 7.17332 11.8664C7.16514 11.8583 7.16514 11.8583 7.15697 11.8583C7.13243 11.842 7.10789 11.8258 7.08336 11.8176C7.067 11.8095 7.05064 11.8014 7.03428 11.7933C7.01793 11.7851 7.00157 11.777 6.98521 11.7689C6.96885 11.7607 6.95249 11.7526 6.92796 11.7445C6.9116 11.7364 6.89524 11.7282 6.87071 11.7201C6.85435 11.712 6.82981 11.7038 6.81345 11.6957C6.7971 11.6876 6.77256 11.6795 6.7562 11.6713C6.59263 11.6063 6.52719 11.4112 6.61716 11.2568C6.70713 11.1105 6.88706 11.0455 7.05064 11.1105C7.05064 11.1105 7.05064 11.1105 7.05882 11.1105C7.23875 11.1918 7.40233 11.273 7.54955 11.3706C7.56591 11.3787 7.58227 11.395 7.6068 11.4031C7.62316 11.4194 7.63952 11.4275 7.65588 11.4437C7.68041 11.4681 7.71313 11.4844 7.73766 11.5088C7.75402 11.525 7.77038 11.5413 7.78674 11.5494C7.8031 11.5657 7.81945 11.5819 7.83581 11.59C7.85217 11.6063 7.86853 11.6226 7.87671 11.6307C7.89306 11.6469 7.90942 11.6632 7.9176 11.6795C7.93396 11.6957 7.95031 11.712 7.96667 11.7364C7.97485 11.7526 7.99121 11.7607 7.99939 11.777C7.99939 11.777 7.99939 11.777 7.99939 11.7851C8.00757 11.8014 8.02392 11.8176 8.0321 11.8339C8.04028 11.8501 8.05664 11.8664 8.06482 11.8827C8.073 11.8908 8.08118 11.907 8.08118 11.9152C8.12207 11.9802 8.15479 12.0534 8.17932 12.1265C8.17932 12.1346 8.1875 12.1509 8.1875 12.159C8.1875 12.1671 8.19568 12.1834 8.19568 12.1915V12.1997C8.20386 12.2159 8.20386 12.2322 8.20386 12.2484C8.20386 12.2647 8.21204 12.2809 8.21204 12.2891C8.21204 12.3053 8.21204 12.3135 8.22022 12.3297C8.22022 12.3378 8.22022 12.3541 8.22022 12.3622C8.24475 12.3704 8.24475 12.3866 8.24475 12.4029Z" fill="#454545"/>
</g>
<defs>
<clipPath id="clip0">
<rect width="9.18485" height="13.7773" fill="white" transform="translate(0 0.365234)"/>
</clipPath>
</defs>
</svg>
