<svg width="15" height="15" viewBox="0 0 15 15" fill="none" xmlns="http://www.w3.org/2000/svg">
<path d="M6.81477 2.37036H2.29217C1.94947 2.37036 1.6208 2.5065 1.37847 2.74883C1.13614 2.99116 1 3.31983 1 3.66253V12.7077C1 13.0504 1.13614 13.3791 1.37847 13.6214C1.6208 13.8638 1.94947 13.9999 2.29217 13.9999H11.3374C11.6801 13.9999 12.0087 13.8638 12.2511 13.6214C12.4934 13.3791 12.6295 13.0504 12.6295 12.7077V8.18513" stroke="#1DAEFF" stroke-linecap="round" stroke-linejoin="round"/>
<path d="M11.6608 1.40143C11.9179 1.1444 12.2665 1 12.63 1C12.9935 1 13.3421 1.1444 13.5991 1.40143C13.8561 1.65845 14.0005 2.00706 14.0005 2.37055C14.0005 2.73405 13.8561 3.08265 13.5991 3.33968L7.46129 9.47749L4.87695 10.1236L5.52304 7.53923L11.6608 1.40143Z" stroke="#1DAEFF" stroke-linecap="round" stroke-linejoin="round"/>
</svg>
