<svg width="211" height="155" viewBox="0 0 211 155" fill="none" xmlns="http://www.w3.org/2000/svg">
<g clip-path="url(#clip0)">
<path opacity="0.4" d="M191.767 154.9H15.9924C8.06697 150.937 -0.707635 135.016 0.0707572 120.509C0.212283 118.316 1.27373 107.843 8.91612 99.068C13.3034 94.0438 16.0632 93.9023 21.0873 90.0104C36.7967 77.9807 30.0035 63.9696 43.3069 53.8505C53.7798 45.8543 63.7574 50.2416 69.9137 40.3348C72.815 35.7352 71.1167 33.7539 74.3718 28.7297C80.9528 18.6106 92.9117 15.497 96.096 14.6479C109.966 11.039 126.17 14.9309 135.44 24.9085C143.507 33.4708 139.544 39.3441 148.248 47.9772C158.509 58.0963 166.859 52.7891 173.511 61.1391C182.781 72.6734 169.831 86.8968 179.596 102.818C185.045 111.735 190.989 110.673 195.376 118.952C201.25 129.921 197.004 143.932 191.767 154.9Z" fill="#B2DDF4"/>
<path d="M81.0236 69.4893C79.7499 66.8003 78.2639 61.9884 77.5562 53.4968C77.6978 54.346 79.113 65.102 83.288 71.1876C98.0775 116.759 110.673 139.049 121.146 138.059C125.18 137.705 128.859 133.884 132.256 126.666C132.256 126.666 143.72 107.206 143.932 107.064C143.932 107.064 165.09 80.1745 140.04 64.7482C127.303 56.8935 127.373 46.8451 127.869 38.1413C128.435 29.4375 124.401 -8.20841 98.8559 1.62764C98.8559 1.62764 94.7516 -0.212199 92.9118 0.070853C92.9118 0.070853 94.3978 0.353905 95.1762 1.1323C92.2041 0.990771 87.9584 1.20306 84.4202 3.18442C75.0088 8.49164 66.6587 56.2566 81.0236 69.4893Z" fill="#293861"/>
<path d="M164.948 90.152C164.099 90.0105 163.816 91.2134 162.188 92.4872C158.084 95.6715 150.795 95.53 148.248 92.2041C147.752 91.5672 147.611 90.9304 147.257 89.5859C146.054 84.774 147.894 82.7219 147.257 80.1036C146.408 76.424 141.596 74.6549 131.972 71.1168C130.345 70.4799 129.779 70.3384 123.693 68.4278C117.678 66.4464 111.097 64.3943 111.097 64.3943H90.3638C90.3638 64.3943 83.2167 66.8002 75.5743 69.4892C67.6489 71.6829 61.8463 74.7964 58.1666 77.1316C53.1425 80.3159 48.2598 85.6939 38.4238 96.5206C36.6547 98.4312 33.9657 101.474 32.3382 106.215C31.5598 108.55 31.2767 110.532 31.1352 111.805C31.0645 112.655 30.9937 113.858 31.206 115.273C31.8428 119.165 34.178 123.269 35.7348 122.986C36.2301 122.915 36.4424 122.349 36.9378 121.571C38.5653 118.882 41.042 117.679 43.2357 116.547C45.6416 115.344 48.1183 114.848 50.7365 114.565C50.9488 114.565 51.0904 114.494 51.2319 114.424C51.4442 114.282 51.5149 114.07 51.6565 113.858C53.001 111.381 55.2654 109.329 57.3175 107.418C58.8743 106.003 59.2989 105.72 60.4311 104.871C60.4311 104.871 61.2094 104.234 62.4124 103.102C65.6675 100.2 68.1442 96.3084 69.3472 96.6622C70.904 97.1575 67.7904 103.172 69.9133 110.673C71.6824 116.83 75.9989 120.155 74.4421 124.614C74.0883 125.675 73.5222 126.383 73.1684 126.807C71.6824 129.638 69.7718 133.6 68.0027 138.483C65.1722 146.338 63.12 151.503 63.8277 154.829H140.181C140.039 152.706 139.049 148.602 136.077 139.898C134.661 135.653 133.105 131.69 131.052 127.656C130.345 126.241 129.637 124.826 129.496 123.269C129.142 120.509 131.265 117.962 132.326 115.556C133.671 112.442 134.661 109.187 134.732 105.791C134.732 105.012 133.529 97.6529 133.812 97.5113C134.095 97.3698 134.591 98.502 136.713 101.545C138.624 104.305 139.19 105.154 140.605 107.064C141.667 108.409 142.375 109.329 143.365 110.39C145.205 112.301 146.903 113.575 148.106 114.424C148.602 114.99 151.361 117.82 155.253 117.608C157.942 117.466 160.065 116.122 161.056 114.848C165.16 109.612 166.292 104.871 166.646 102.182C167.566 97.0867 166.858 90.435 164.948 90.152Z" fill="white"/>
<path d="M103.243 7.3593C103.243 7.3593 119.448 9.90677 116.971 35.3106C114.494 60.7145 100.2 58.5916 99.2095 58.5916C98.2188 58.5916 84.8446 59.087 83.7832 28.0928C83.854 28.0221 83.3586 5.16565 103.243 7.3593Z" fill="#FFB27D"/>
<path d="M113.149 63.899L111.097 62.9083C110.107 60.6439 110.814 51.0909 110.814 51.0909C110.814 51.0909 90.1514 45.8544 90.7175 49.8879C91.2836 53.9214 88.9484 63.2621 88.9484 63.2621L78.334 68.4986C78.334 68.4986 89.6561 98.7851 102.606 94.8931C115.555 91.0012 120.509 67.3664 120.509 67.3664L113.149 63.899Z" fill="#FFB27D"/>
<path d="M91.0723 54.346C91.0723 54.346 94.3981 58.6625 100.201 58.6625C104.022 58.6625 106.711 57.6011 110.532 53.9214C110.532 53.9214 108.905 60.9269 100.271 61.5638C100.201 61.493 93.9028 62.3422 91.0723 54.346Z" fill="#ED975D"/>
<path d="M87.0381 16.7707C92.8406 17.4784 96.8034 19.2474 99.4216 20.8042C101.544 22.0779 104.87 24.4131 110.39 27.2436C112.371 28.2343 113.999 29.0127 116.051 28.7297C116.617 28.6589 118.315 27.8097 121.57 26.253C123.339 25.4038 125.745 24.2008 125.745 24.2008C125.745 24.2008 116.405 20.2381 112.725 10.8974C110.39 10.4021 106.71 9.62368 102.252 8.49147C96.0957 7.00545 94.3974 6.36858 92.3453 7.21774C91.4961 7.57155 88.2411 9.26986 87.0381 16.7707Z" fill="#293861"/>
<path d="M94.3972 12.242C94.3972 12.242 89.3023 15.8509 88.0285 19.3183C86.7548 22.7857 86.1887 30.0035 83.8535 29.7912C83.8535 29.7912 78.6879 18.823 84.4904 12.6666C90.6468 6.08564 94.3972 12.242 94.3972 12.242Z" fill="#293861"/>
<path d="M89.0908 5.59024C88.9493 7.50084 92.6997 9.4822 95.0349 10.2606C97.8654 11.1805 99.2099 10.4729 102.677 10.6144C109.895 10.8975 112.938 14.5771 114.282 13.2326C115.768 11.7466 113.787 5.23642 109.117 2.12285C101.687 -2.90131 89.3031 2.19362 89.0908 5.59024Z" fill="#293861"/>
<path d="M36.7968 124.118C45.0761 132.185 53.3553 140.606 63.6867 146.055C64.6774 146.55 65.8096 146.975 66.9418 146.975C68.1448 146.975 69.1354 146.196 70.3384 146.125C71.1168 146.055 71.8952 146.408 72.5321 146.833C73.8058 147.682 75.0088 148.602 76.2117 149.664C76.7778 149.734 77.3439 149.734 77.5562 149.451C77.9808 148.814 76.7778 147.328 76.2825 146.762C75.3626 145.63 74.1596 144.71 72.8859 144.002C74.1596 143.79 75.5041 144.356 76.5656 144.993C77.3439 145.489 79.0423 147.753 80.0329 147.541C80.4575 147.399 80.599 146.904 80.6698 146.833C81.0236 145.842 80.2452 144.781 79.8914 144.215C78.4054 142.021 75.7872 141.03 73.3812 140.111C73.5935 140.181 74.8672 139.827 75.2918 139.898C77.2732 140.04 79.113 140.818 80.8821 141.597C81.5897 141.95 84.0664 143.012 83.7834 141.172C83.7126 140.535 83.288 139.898 82.7219 139.474C82.0851 138.908 81.2359 138.554 80.4575 138.2C78.4054 137.209 76.3533 137.068 74.1596 136.643C74.0181 136.643 73.8058 136.572 73.735 136.431C73.6643 136.289 73.8058 136.077 73.9473 136.006C75.1503 135.016 76.7778 134.874 78.2639 135.157C79.7499 135.44 81.1651 136.148 82.5096 136.714C82.8634 136.855 83.2173 136.997 83.5711 136.997C83.9249 136.997 84.3495 136.714 84.3495 136.289C84.3495 136.006 84.1372 135.723 83.9249 135.511C81.5897 133.317 78.1931 132.539 75.0088 132.822C72.8859 132.963 70.8338 133.53 68.8524 134.237C66.0219 135.228 63.4037 136.785 61.2808 133.813C57.5303 128.576 54.8413 122.774 52.7185 116.759C51.657 113.716 49.2511 114.07 46.4913 114.565C42.9532 115.202 39.4858 117.183 37.2214 120.155C36.5845 121.005 35.1693 122.208 35.7354 123.41C36.1599 123.481 36.5138 123.835 36.7968 124.118Z" fill="#FFB27D"/>
<path d="M116.758 28.0928C116.758 28.0928 118.527 26.1822 119.164 28.0928C119.801 30.0034 116.758 38.5657 116.617 38.9903C116.617 38.9903 116.263 39.7687 115.838 39.3441C115.485 38.9903 116.758 28.0928 116.758 28.0928Z" fill="#FFB27D"/>
<path d="M142.729 41.6086C141.88 42.5992 141.526 43.3069 141.526 43.3069C140.889 44.5098 140.748 44.2976 140.252 45.2175C139.828 46.0666 139.333 46.9158 139.403 48.048C139.403 49.251 140.04 50.1709 140.606 51.02C140.677 51.0908 140.819 51.3031 141.243 51.8692C142.375 53.2137 143.224 54.2044 143.437 54.4167C145.277 56.4688 146.197 57.4595 146.763 58.5209C147.47 59.9362 147.541 61.2099 147.541 62.4836C147.612 69.843 145.206 85.34 145.206 85.34C145.064 86.4015 144.852 87.8875 144.852 89.7981C144.852 90.5057 144.852 90.8596 144.923 91.0718C145.701 93.9731 151.575 94.61 153.768 94.8223C155.891 95.0346 157.306 95.2469 159.075 94.6808C159.995 94.3977 161.269 93.5485 163.816 91.7795C164.1 91.5672 164.524 91.2841 164.736 90.7888C165.232 89.6566 164.524 88.3829 164.17 87.746C163.25 85.9062 162.967 83.7833 162.047 81.9434C161.411 80.5989 160.137 76.3532 157.519 67.7908C156.882 65.7387 156.386 62.8374 157.023 60.7146C157.519 59.087 158.226 58.8747 159.005 56.1857C159.358 55.195 159.641 53.9213 160.42 52.0815C160.42 52.0815 160.703 51.3738 160.986 50.737C162.33 47.7649 166.222 43.7315 167.001 42.9531C168.345 41.8916 170.68 40.2641 170.327 39.3442C170.256 39.1319 169.973 38.9196 169.902 38.9196C169.053 38.4242 167.85 39.1319 167.708 39.2026C167.072 39.6272 166.364 40.0518 165.656 40.5471C164.029 41.7501 162.684 42.9531 161.623 44.0853C162.967 41.2548 164.17 39.1319 165.019 37.7166C165.869 36.1598 167.001 33.9662 167.567 31.8433C167.779 31.2064 167.921 30.428 167.496 29.9327C167.072 29.5081 166.293 29.5789 166.152 29.5789C165.09 29.7204 164.453 30.6403 164.1 31.2064C162.614 33.4708 161.694 35.5937 161.552 35.8768C161.552 35.8768 159.5 40.9009 157.731 42.3162C157.519 42.4577 157.306 42.5285 157.306 42.5285C157.165 42.5285 157.023 42.5285 156.882 42.5285C156.882 42.4577 156.882 42.3162 156.882 42.1039C156.811 41.3255 156.74 38.5658 158.297 34.8861C159.217 32.6217 160.066 30.7818 160.066 30.7818C160.42 30.0034 160.844 28.942 160.42 28.3051C160.42 28.3051 160.137 27.9513 159.712 27.8098C159.075 27.6683 158.439 28.3051 158.155 28.5882C156.245 30.4988 155.466 33.8246 155.466 33.8246C154.617 39.2734 153.98 41.9624 153.627 41.8916C153.556 41.8916 153.414 41.6086 153.344 41.184C153.131 40.1933 152.777 39.4149 152.494 38.8488C151.999 37.9289 151.008 36.0183 149.31 35.5937C149.098 35.523 148.673 35.4522 148.178 35.5937C147.683 35.7352 147.47 36.0183 146.621 37.0797C145.913 37.9289 145.63 38.3535 145.135 39.1319C144.569 39.981 144.427 40.3348 144.498 40.7594C144.569 41.1132 144.923 41.3255 144.994 41.3963C145.418 41.6793 146.055 41.8209 146.55 41.5378C147.116 41.2548 146.975 40.6886 147.824 39.7687C148.39 39.1319 148.744 39.2026 148.886 39.2026C148.956 39.2026 149.098 39.2734 149.169 39.4149C150.159 40.7594 149.947 46.0666 149.947 46.0666C149.947 46.4204 150.018 47.0573 149.664 47.6942C149.522 48.048 149.239 48.7556 148.602 49.0387C147.966 49.3217 147.47 49.0387 145.984 48.6849C145.135 48.5433 144.427 48.4726 143.932 48.4018C143.649 48.331 143.366 48.1895 143.224 47.9065C142.941 47.3404 143.649 46.7743 144.215 45.359C144.498 44.5098 144.569 43.9437 144.64 43.3776C144.781 42.3162 144.64 41.8916 144.427 41.5378C144.286 41.2548 144.074 41.1132 143.932 41.0425C143.791 40.9717 143.578 40.9009 143.295 40.9717C143.154 41.2548 142.941 41.3963 142.729 41.6086Z" fill="#FFB27D"/>
<path d="M95.6719 48.3311C95.9549 48.6141 98.0778 50.8078 101.333 50.5955C103.951 50.3832 105.579 48.7556 105.932 48.3311" stroke="#ED975D" stroke-miterlimit="10" stroke-linecap="round" stroke-linejoin="round"/>
<path d="M99.4219 42.3162C99.4219 42.3162 101.474 43.8729 103.031 42.3162" stroke="#ED975D" stroke-miterlimit="10" stroke-linecap="round" stroke-linejoin="round"/>
<path d="M83.5004 28.0222C83.3589 27.8807 82.8635 27.3146 82.439 27.4561C82.0852 27.5269 81.8729 28.0222 81.8021 28.2345C81.0945 30.0743 84.0665 38.3536 84.208 38.7782C84.208 38.7782 84.4203 39.2028 84.7034 39.2028C84.7034 39.2028 84.8449 39.2028 84.9864 39.0612C85.6233 38.4951 86.1186 29.7913 84.9864 29.5082C84.9157 29.5082 84.5619 29.4375 84.2788 29.1544C84.1373 29.0129 84.1373 28.9421 84.0665 28.7298C83.925 28.5883 83.7835 28.3053 83.5004 28.0222Z" fill="#FFB27D"/>
<path d="M207.972 143.436C205.142 150.23 202.736 153.202 201.462 154.475H175.988C171.317 143.436 167.354 131.265 169.973 129.284C171.671 127.939 172.945 128.222 173.016 128.222C173.511 128.364 174.643 129.142 176.554 130.345C176.837 130.558 177.474 130.982 178.323 130.911C178.747 130.841 179.03 130.699 179.03 130.699C179.667 130.416 179.384 129.355 178.252 125.675C176.483 120.014 173.299 109.541 174.997 100.059C175.351 98.2189 176.271 93.2655 179.172 92.4164C180.375 92.0625 181.861 92.4163 182.852 93.1947C183.913 94.1147 184.125 95.4592 184.338 96.6621C184.55 97.8651 184.691 98.9973 185.753 99.4219C186.744 99.7757 187.946 99.2803 188.583 98.6435C190.069 97.0867 188.866 94.0439 187.522 90.7888C187.168 89.8689 186.814 89.0197 186.46 88.0998C182.781 78.1222 184.55 67.7909 187.946 62.0591C188.725 60.7146 191.202 56.5396 194.386 56.5396C194.598 56.5396 195.306 56.6103 195.943 56.8934C198.207 57.9548 199.198 61.9883 198.986 68.9231C198.632 77.7684 197.075 85.4816 195.943 91.0719C194.81 96.6621 194.244 99.4926 195.518 100.059C196.155 100.342 196.933 99.9172 197.429 99.5634C198.844 98.6435 199.056 97.0867 199.269 95.6007C199.481 94.327 199.622 93.0532 200.542 92.0625C201.958 90.6473 204.505 90.435 206.133 91.0719C208.892 92.2041 210.166 96.4498 210.095 99.988C210.025 104.729 207.406 107.984 204.647 111.452C201.816 114.99 198.561 119.023 197.641 125.321C197.57 125.887 196.863 130.77 198.632 131.761C199.693 132.397 201.321 131.69 203.727 129.638C205.071 128.576 206.911 127.444 208.326 128.435C210.591 129.921 210.944 136.148 207.972 143.436Z" fill="#6DF49D"/>
<path d="M194.102 62.1299C194.102 62.1299 193.678 63.4744 193.112 65.8803C192.546 68.2863 191.838 71.7536 191.413 75.9994C191.201 78.1223 191.13 80.3867 191.13 82.8634C191.13 85.3401 191.343 87.8876 191.696 90.5058C192.05 93.124 192.616 95.813 193.041 98.6435C193.395 101.403 193.536 104.305 193.395 107.135C193.253 109.966 192.899 112.867 192.263 115.627C191.626 118.386 190.777 121.005 190.281 123.623C189.786 126.241 189.432 128.789 189.291 131.194C189.078 133.6 189.007 135.936 189.007 138.058C189.078 142.304 189.361 145.842 189.715 148.319C189.857 149.522 190.069 150.513 190.14 151.15C190.281 151.786 190.281 152.14 190.281 152.14C190.281 152.14 190.21 151.786 190.069 151.15C189.927 150.513 189.715 149.522 189.503 148.319C189.078 145.842 188.583 142.304 188.512 138.058C188.441 135.936 188.512 133.6 188.654 131.124C188.795 128.718 189.078 126.1 189.574 123.481C190.069 120.863 190.847 118.174 191.484 115.485C192.121 112.796 192.475 109.966 192.546 107.135C192.687 104.305 192.616 101.474 192.263 98.7143C191.909 95.9546 191.343 93.2656 190.989 90.5766C190.635 87.9583 190.493 85.3401 190.564 82.8634C190.564 80.3867 190.706 78.1223 190.989 75.9994C191.484 71.7536 192.263 68.2863 192.899 65.8803C193.253 64.6773 193.536 63.7574 193.749 63.1206C194.032 62.4837 194.102 62.1299 194.102 62.1299Z" fill="white"/>
<path d="M179.95 97.7944C179.95 97.7944 179.879 98.219 179.808 98.9974C179.738 99.7758 179.596 100.837 179.667 102.182C179.667 103.455 179.879 105.012 180.304 106.569C180.516 107.347 180.799 108.126 181.153 108.904C181.507 109.683 182.002 110.39 182.497 111.098C182.993 111.805 183.488 112.584 183.913 113.362C184.337 114.141 184.62 114.99 184.832 115.768C185.328 117.396 185.399 118.953 185.399 120.297C185.399 121.642 185.186 122.703 185.045 123.481C184.903 124.26 184.762 124.684 184.762 124.684C184.762 124.684 184.832 124.26 184.903 123.481C184.974 122.703 185.045 121.642 185.045 120.297C184.974 119.023 184.762 117.467 184.266 115.91C184.054 115.131 183.7 114.353 183.276 113.645C182.922 112.867 182.427 112.159 181.931 111.452C181.436 110.744 180.941 109.966 180.587 109.116C180.233 108.267 179.95 107.489 179.738 106.64C179.313 105.012 179.242 103.455 179.313 102.111C179.384 100.766 179.596 99.705 179.738 98.9266C179.808 98.219 179.95 97.7944 179.95 97.7944Z" fill="white"/>
<path d="M204.151 95.3884C204.151 95.3884 204.222 95.813 204.363 96.5914C204.434 97.3698 204.575 98.502 204.505 99.9173C204.434 101.262 204.222 102.889 203.585 104.517C203.443 104.941 203.231 105.366 203.019 105.72C202.806 106.144 202.594 106.498 202.311 106.923C201.816 107.701 201.179 108.338 200.542 109.046C199.905 109.683 199.41 110.39 198.914 111.098C198.419 111.805 197.994 112.584 197.641 113.362C196.933 114.848 196.508 116.405 196.225 117.75C195.942 119.094 195.801 120.226 195.73 121.005C195.659 121.783 195.659 122.278 195.659 122.278C195.659 122.278 195.659 122.137 195.659 121.925C195.659 121.712 195.659 121.429 195.659 121.005C195.659 120.226 195.659 119.094 195.871 117.679C196.084 116.334 196.438 114.707 197.074 113.15C197.428 112.372 197.853 111.522 198.348 110.815C198.844 110.036 199.41 109.329 200.046 108.621C200.683 107.913 201.249 107.277 201.745 106.569C202.028 106.215 202.24 105.861 202.452 105.508C202.665 105.083 202.806 104.729 203.019 104.375C203.655 102.819 204.009 101.333 204.151 99.988C204.292 98.6435 204.292 97.5113 204.222 96.7329C204.222 95.813 204.151 95.3884 204.151 95.3884Z" fill="white"/>
<path d="M206.416 131.902C206.416 131.902 206.416 131.973 206.345 132.114C206.345 132.256 206.275 132.539 206.204 132.822C206.062 133.388 205.85 134.237 205.425 135.228C205.001 136.219 204.435 137.28 203.586 138.342C203.161 138.837 202.736 139.332 202.17 139.828C201.675 140.323 201.038 140.747 200.472 141.101C199.906 141.526 199.34 141.88 198.844 142.304C198.349 142.729 197.925 143.224 197.5 143.72C196.722 144.71 196.085 145.772 195.731 146.692C195.306 147.611 195.094 148.461 194.953 149.027C194.811 149.593 194.74 149.947 194.74 149.947C194.74 149.947 194.74 149.593 194.811 149.027C194.882 148.461 195.023 147.541 195.377 146.55C195.731 145.559 196.226 144.427 197.005 143.366C197.358 142.87 197.854 142.304 198.42 141.88C198.915 141.384 199.552 141.031 200.118 140.606C200.684 140.252 201.25 139.828 201.746 139.403C202.241 138.978 202.736 138.483 203.09 138.058C203.939 137.068 204.576 136.077 205.001 135.157C205.425 134.237 205.779 133.459 205.992 132.893C206.275 132.185 206.416 131.902 206.416 131.902Z" fill="white"/>
<path d="M174.077 131.902C174.077 131.902 174.218 132.256 174.36 132.822C174.572 133.388 174.926 134.167 175.35 135.086C175.846 136.006 176.483 136.997 177.261 137.988C177.686 138.483 178.181 138.908 178.605 139.332C179.101 139.757 179.667 140.181 180.233 140.535C180.799 140.96 181.365 141.314 181.931 141.809C182.427 142.233 182.922 142.8 183.347 143.295C184.196 144.356 184.691 145.489 184.974 146.479C185.328 147.47 185.469 148.319 185.54 148.956C185.611 149.593 185.611 149.876 185.611 149.876C185.611 149.876 185.54 149.522 185.399 148.956C185.257 148.39 184.974 147.541 184.62 146.621C184.196 145.701 183.63 144.639 182.851 143.649C182.427 143.153 182.002 142.658 181.507 142.233C181.011 141.809 180.445 141.384 179.879 141.031C179.313 140.606 178.747 140.181 178.181 139.757C177.615 139.261 177.19 138.766 176.766 138.271C175.916 137.209 175.35 136.148 174.926 135.157C174.501 134.167 174.289 133.317 174.147 132.751C174.077 132.468 174.006 132.185 174.006 132.044C174.077 131.973 174.077 131.902 174.077 131.902Z" fill="white"/>
<path d="M51.7274 113.928C51.7274 113.928 52.0813 109.399 46.0664 105.437L51.7274 113.928Z" fill="#E9F0F8"/>
<path d="M144.994 91.1426C144.64 92.6286 144.286 95.0345 144.711 97.9358C145.135 100.837 146.126 103.031 146.904 104.375" fill="#E9F0F8"/>
</g>
<defs>
<clipPath id="clip0">
<rect width="210.237" height="154.9" fill="white"/>
</clipPath>
</defs>
</svg>
