<svg width="22" height="22" viewBox="0 0 22 22" fill="none" xmlns="http://www.w3.org/2000/svg">
<path d="M1 10.1435V6.37988C1 5.27531 1.89543 4.37988 3 4.37988H19C20.1046 4.37988 21 5.27532 21 6.37988V10.1435C21 10.7027 20.7464 11.2318 20.3103 11.5821C19.8743 11.9324 19.6207 12.4615 19.6207 13.0207V19.0004C19.6207 20.105 18.7253 21.0004 17.6207 21.0004H4.37931C3.27474 21.0004 2.37931 20.105 2.37931 19.0004V13.0207C2.37931 12.4615 2.12567 11.9324 1.68966 11.5821C1.25364 11.2318 1 10.7027 1 10.1435Z" stroke="#1DAEFF" stroke-linecap="round" stroke-linejoin="round"/>
<path d="M13.4211 4.15789H8.57895C7.70692 4.15789 7 3.45098 7 2.57895C7 1.70692 7.70692 1 8.57895 1H13.4211C14.2931 1 15 1.70692 15 2.57895C15 3.45098 14.2931 4.15789 13.4211 4.15789Z" stroke="#1DAEFF"/>
<path d="M2 11.5264H20" stroke="#1DAEFF" stroke-linecap="round" stroke-linejoin="round"/>
<path d="M12.5 11.5262C12.5 12.4372 11.8046 13.1314 11 13.1314C10.1954 13.1314 9.5 12.4372 9.5 11.5262C9.5 10.6151 10.1954 9.9209 11 9.9209C11.8046 9.9209 12.5 10.6151 12.5 11.5262Z" fill="white" stroke="#1DAEFF"/>
</svg>
