<svg width="19" height="20" viewBox="0 0 19 20" fill="none" xmlns="http://www.w3.org/2000/svg">
<g clip-path="url(#clip0)">
<path d="M4.27092 6.39844H0.261719V19.7283H4.27092V6.39844Z" fill="white"/>
<path d="M2.26607 4.59341C0.871566 4.59341 0 3.60267 0 2.34174C0 0.990735 0.871566 0 2.26607 0C3.66058 0 4.44499 0.990735 4.53214 2.34174C4.44499 3.60267 3.57342 4.59341 2.26607 4.59341Z" fill="white"/>
<path d="M18.564 19.7229H14.5548V12.6076C14.5548 10.8063 13.9447 9.63543 12.5502 9.63543C11.4171 9.63543 10.807 10.446 10.5456 11.2566C10.4584 11.5268 10.3713 11.9772 10.3713 12.3374V19.813H6.44922C6.44922 19.813 6.53638 7.74403 6.44922 6.48309H10.4584V8.37449C10.9814 7.47383 11.9401 6.21289 14.0318 6.21289C16.6465 6.21289 18.6511 8.10429 18.6511 12.2474V19.7229H18.564Z" fill="white"/>
</g>
<defs>
<clipPath id="clip0">
<rect width="18.5644" height="19.7246" fill="white"/>
</clipPath>
</defs>
</svg>
