<svg width="486" height="123" viewBox="0 0 486 123" fill="none" xmlns="http://www.w3.org/2000/svg">
<g clip-path="url(#clip0)">
<path d="M0 72.3187L21.7282 70.4669V78.1666C21.7282 92.9811 28.8427 98.0493 38.457 98.0493C46.7252 98.0493 53.5513 93.5659 53.5513 77.7767V1.07227H78.2599V79.4336C78.2599 110.72 63.8386 123.098 38.457 123.098C15.0944 123.098 0 108.965 0 79.6285V72.3187H0Z" fill="white"/>
<path d="M128.734 33.6255C153.154 33.6255 173.152 53.5082 173.152 78.2642C173.152 103.02 153.154 122.903 128.734 122.903C104.987 122.903 85.6621 103.02 85.6621 78.2642C85.7583 53.6057 105.083 33.6255 128.734 33.6255ZM128.734 98.0494C140.752 98.0494 148.539 89.4726 148.539 78.2642C148.539 66.276 140.752 56.9195 128.734 56.9195C117.389 56.9195 110.275 66.1786 110.275 78.2642C110.275 89.4726 117.389 98.0494 128.734 98.0494Z" fill="white"/>
<path d="M219.782 33.6255C244.202 33.6255 264.199 53.5082 264.199 78.2642C264.199 103.02 244.202 122.903 219.782 122.903C196.035 122.903 176.71 103.02 176.71 78.2642C176.71 53.6057 196.035 33.6255 219.782 33.6255ZM219.782 98.0494C231.8 98.0494 239.587 89.4726 239.587 78.2642C239.587 66.276 231.8 56.9195 219.782 56.9195C208.437 56.9195 201.322 66.1786 201.322 78.2642C201.322 89.4726 208.437 98.0494 219.782 98.0494Z" fill="white"/>
<path d="M295.157 1.07227V45.2236C298.714 38.2062 307.367 33.7228 317.654 33.7228C339.671 33.7228 357.649 53.6056 357.649 78.3615C357.649 102.923 339.671 123 317.654 123C307.271 123 298.714 118.322 295.157 111.304V121.246H270.448V1.07227H295.157ZM295.157 78.3615C295.157 91.2268 303.425 97.9518 313.424 97.9518C325.153 97.9518 332.941 89.375 332.941 78.3615C332.941 66.4708 325.153 57.2117 313.424 57.2117C303.521 57.2117 295.157 64.4241 295.157 78.3615Z" fill="white"/>
<path d="M388.704 1.07227V45.2236C392.261 38.2062 400.914 33.7228 411.201 33.7228C433.218 33.7228 451.196 53.6056 451.196 78.3615C451.196 102.923 433.218 123 411.201 123C400.818 123 392.261 118.322 388.704 111.304V121.246H363.995V1.07227H388.704ZM388.704 78.3615C388.704 91.2268 396.972 97.9518 406.971 97.9518C418.7 97.9518 426.488 89.375 426.488 78.3615C426.488 66.4708 418.7 57.2117 406.971 57.2117C397.068 57.2117 388.704 64.4241 388.704 78.3615Z" fill="white"/>
<path d="M486 106.821C485.808 114.423 479.174 121.05 471.771 121.245C464.176 121.05 457.734 114.423 457.542 106.821C457.734 99.2185 464.176 92.5909 471.771 92.396C479.174 92.5909 485.808 99.316 486 106.821Z" fill="#14FF91"/>
<path d="M484.751 0H460.042V85.8661H484.751V0Z" fill="#14FF91"/>
</g>
<defs>
<clipPath id="clip0">
<rect width="486" height="123" fill="white"/>
</clipPath>
</defs>
</svg>
