<svg width="548" height="185" viewBox="0 0 548 185" fill="none" xmlns="http://www.w3.org/2000/svg">
<mask id="mask0" mask-type="alpha" maskUnits="userSpaceOnUse" x="0" y="0" width="548" height="185">
<rect width="548" height="185" fill="#C4C4C4"/>
</mask>
<g mask="url(#mask0)">
</g>
<g clip-path="url(#clip0)" filter="url(#filter0_d)">
<path d="M16 104.022L39.0694 102.05V110.251C39.0694 126.029 46.6231 131.427 56.8309 131.427C65.6095 131.427 72.857 126.652 72.857 109.835V28.1421H99.0908V111.6C99.0908 144.921 83.7792 158.104 56.8309 158.104C32.0261 158.104 16 143.053 16 111.808V104.022H16Z" fill="white"/>
<path d="M152.682 62.8125C178.609 62.8125 199.841 83.9884 199.841 110.355C199.841 136.721 178.609 157.897 152.682 157.897C127.469 157.897 106.951 136.721 106.951 110.355C107.053 84.0922 127.571 62.8125 152.682 62.8125ZM152.682 131.427C165.441 131.427 173.71 122.292 173.71 110.355C173.71 97.5867 165.441 87.6215 152.682 87.6215C140.637 87.6215 133.083 97.4829 133.083 110.355C133.083 122.292 140.637 131.427 152.682 131.427Z" fill="white"/>
<path d="M249.348 62.8125C275.275 62.8125 296.507 83.9884 296.507 110.355C296.507 136.721 275.275 157.897 249.348 157.897C224.135 157.897 203.617 136.721 203.617 110.355C203.617 84.0922 224.135 62.8125 249.348 62.8125ZM249.348 131.427C262.107 131.427 270.376 122.292 270.376 110.355C270.376 97.5867 262.107 87.6215 249.348 87.6215C237.303 87.6215 229.749 97.4829 229.749 110.355C229.749 122.292 237.303 131.427 249.348 131.427Z" fill="white"/>
<path d="M329.376 28.1421V75.1651C333.153 67.6912 342.34 62.9163 353.262 62.9163C376.638 62.9163 395.727 84.0922 395.727 110.458C395.727 136.617 376.638 158 353.262 158C342.238 158 333.153 153.018 329.376 145.544V156.132H303.143V28.1421H329.376ZM329.376 110.458C329.376 124.16 338.155 131.323 348.771 131.323C361.224 131.323 369.493 122.188 369.493 110.458C369.493 97.7942 361.224 87.9329 348.771 87.9329C338.257 87.9329 329.376 95.6144 329.376 110.458Z" fill="white"/>
<path d="M428.699 28.1421V75.1651C432.475 67.6912 441.662 62.9163 452.585 62.9163C475.96 62.9163 495.049 84.0922 495.049 110.458C495.049 136.617 475.96 158 452.585 158C441.56 158 432.475 153.018 428.699 145.544V156.132H402.465V28.1421H428.699ZM428.699 110.458C428.699 124.16 437.477 131.323 448.093 131.323C460.547 131.323 468.815 122.188 468.815 110.458C468.815 97.7942 460.547 87.9329 448.093 87.9329C437.579 87.9329 428.699 95.6144 428.699 110.458Z" fill="white"/>
<path d="M532 140.769C531.796 148.865 524.753 155.924 516.893 156.132C508.828 155.924 501.989 148.865 501.785 140.769C501.989 132.672 508.828 125.613 516.893 125.406C524.753 125.613 531.796 132.776 532 140.769Z" fill="#14FF91"/>
<path d="M530.673 27H504.439V118.451H530.673V27Z" fill="#14FF91"/>
</g>
<defs>
<filter id="filter0_d" x="12" y="27" width="524" height="139" filterUnits="userSpaceOnUse" color-interpolation-filters="sRGB">
<feFlood flood-opacity="0" result="BackgroundImageFix"/>
<feColorMatrix in="SourceAlpha" type="matrix" values="0 0 0 0 0 0 0 0 0 0 0 0 0 0 0 0 0 0 127 0"/>
<feOffset dy="4"/>
<feGaussianBlur stdDeviation="2"/>
<feColorMatrix type="matrix" values="0 0 0 0 0 0 0 0 0 0 0 0 0 0 0 0 0 0 0.25 0"/>
<feBlend mode="normal" in2="BackgroundImageFix" result="effect1_dropShadow"/>
<feBlend mode="normal" in="SourceGraphic" in2="effect1_dropShadow" result="shape"/>
</filter>
<clipPath id="clip0">
<rect width="516" height="131" fill="white" transform="translate(16 27)"/>
</clipPath>
</defs>
</svg>
