<svg width="39" height="25" viewBox="0 0 39 25" fill="none" xmlns="http://www.w3.org/2000/svg">
<path d="M36.3832 8.37732L32.175 11.8569C32.8764 12.6548 33.2928 13.7186 33.2928 14.8933C33.2928 17.442 31.2545 19.5032 28.734 19.5032C27.2655 19.5032 25.9505 18.794 25.1176 17.6858L21.7204 13.4748L19.5944 10.8596L18.2355 9.17519L17.1835 7.88973C14.4657 5.03069 10.1261 3.81171 5.67686 5.71774C3.52895 6.62643 1.79748 8.39948 0.898863 10.5715C-2.16958 17.9296 3.11252 24.9997 9.99459 24.9997C11.3754 24.9997 12.537 24.6894 12.9973 24.5342C16.8767 23.2931 18.7835 19.9465 19.3314 18.927C19.704 19.4589 20.0547 19.9686 20.4273 20.5005L21.6766 22.0298C22.619 22.9828 23.7149 23.7364 24.9642 24.2461C27.3751 25.2435 30.2682 25.3321 33.2051 24.0245C35.2873 23.0936 36.9311 21.4092 37.8297 19.3037C39.5612 15.1814 38.7064 11.1477 36.3832 8.37732ZM9.99459 19.5032C6.70698 19.5032 4.23031 15.9793 6.07137 12.4332C6.40014 11.7904 6.92615 11.2807 7.53984 10.9482C11.0247 9.04221 14.5534 11.5688 14.5534 14.8933C14.5534 17.442 12.5151 19.5032 9.99459 19.5032Z" fill="white"/>
<path d="M22.5969 9.21986C25.1147 9.21986 27.1557 7.15592 27.1557 4.60993C27.1557 2.06394 25.1147 0 22.5969 0C20.0791 0 18.0381 2.06394 18.0381 4.60993C18.0381 7.15592 20.0791 9.21986 22.5969 9.21986Z" fill="white"/>
<path d="M28.8216 18.063C30.3589 18.063 31.6051 16.8028 31.6051 15.2483C31.6051 13.6938 30.3589 12.4336 28.8216 12.4336C27.2843 12.4336 26.0381 13.6938 26.0381 15.2483C26.0381 16.8028 27.2843 18.063 28.8216 18.063Z" fill="white"/>
</svg>
