<svg width="42" height="25" viewBox="0 0 42 25" fill="none" xmlns="http://www.w3.org/2000/svg">
<path d="M36.3827 8.37732L32.1745 11.8569C32.8759 12.6548 33.2923 13.7186 33.2923 14.8933C33.2923 17.442 31.254 19.5032 28.7335 19.5032C27.265 19.5032 25.95 18.794 25.1171 17.6858L21.7199 13.4748L19.5939 10.8596L18.2351 9.17519L17.183 7.88973C14.4653 5.03069 10.1256 3.81171 5.67637 5.71774C3.52847 6.62643 1.79699 8.39948 0.898375 10.5715C-2.17006 17.9296 3.11203 24.9997 9.9941 24.9997C11.3749 24.9997 12.5365 24.6894 12.9968 24.5342C16.8762 23.2931 18.783 19.9465 19.3309 18.927C19.7035 19.4589 20.0542 19.9686 20.4268 20.5005L21.6761 22.0298C22.6185 22.9828 23.7144 23.7364 24.9637 24.2461C27.3746 25.2435 30.2677 25.3321 33.2047 24.0245C35.2868 23.0936 36.9306 21.4092 37.8292 19.3037C39.5607 15.1814 38.7059 11.1477 36.3827 8.37732ZM9.9941 19.5032C6.70649 19.5032 4.22982 15.9793 6.07089 12.4332C6.39965 11.7904 6.92567 11.2807 7.53935 10.9482C11.0242 9.04221 14.5529 11.5688 14.5529 14.8933C14.5529 17.442 12.5146 19.5032 9.9941 19.5032Z" fill="#00AFFF"/>
<path d="M22.5967 9.21986C25.1144 9.21986 27.1555 7.15592 27.1555 4.60993C27.1555 2.06394 25.1144 0 22.5967 0C20.0789 0 18.0378 2.06394 18.0378 4.60993C18.0378 7.15592 20.0789 9.21986 22.5967 9.21986Z" fill="#6DF49D"/>
<path d="M28.8211 18.063C30.3584 18.063 31.6046 16.8028 31.6046 15.2483C31.6046 13.6938 30.3584 12.4336 28.8211 12.4336C27.2838 12.4336 26.0376 13.6938 26.0376 15.2483C26.0376 16.8028 27.2838 18.063 28.8211 18.063Z" fill="#6DF49D"/>
</svg>
