<svg width="23" height="19" viewBox="0 0 23 19" fill="none" xmlns="http://www.w3.org/2000/svg">
<path d="M6.69161 6.42115H19.2184V5.21055C19.2184 3.55369 17.8753 2.21055 16.2184 2.21055H11.2633C10.4901 2.21055 9.73128 2.0014 9.06726 1.60527C8.40323 1.20914 7.64442 1 6.87122 1H2.94531C1.84074 1 0.945312 1.89543 0.945312 3V15.1932L2.88551 9.19086C3.41919 7.53983 4.95647 6.42115 6.69161 6.42115Z" stroke="#1DAEFF"/>
<path d="M18.3394 6.4209H13.8624H5.95699C4.65889 6.4209 3.50805 7.25577 3.10515 8.48976L1.28353 14.0689C0.650389 16.0081 2.09547 18 4.13537 18H16.6696C17.9952 18 19.1636 17.1301 19.5437 15.8602L21.2135 10.2811C21.7894 8.35665 20.3482 6.4209 18.3394 6.4209Z" stroke="#1DAEFF"/>
</svg>
