<svg width="22" height="22" viewBox="0 0 22 22" fill="none" xmlns="http://www.w3.org/2000/svg">
<path d="M10.5 12.3267C9.5 12.3267 7.5 13.3116 6 13.804C7.23043 13.8041 8.66947 17.0546 9.69128 19.5499C10.9217 22.5546 13.9978 20.1508 13.3826 18.9489C12.7673 17.747 11.5369 15.9442 11.5369 15.3433C11.5369 14.7423 12.2812 12.3267 10.5 12.3267Z" stroke="#1DAEFF" stroke-linecap="round" stroke-linejoin="round"/>
<path d="M5.95846 14.0234C5.29276 12.5633 4.06234 10.1595 3.49761 9.21582C1.03679 10.4177 0.372174 11.3614 1.6026 13.7651C2.58694 15.6881 4.93309 14.6243 5.95846 14.0234Z" stroke="#1DAEFF" stroke-linejoin="round"/>
<path d="M17.2202 13.0188C16.7281 7.73054 12.9137 2.80282 11.0681 1C9.09942 5.32678 5.38479 8.14319 3.53915 9.14476L6 13.9523C11 10.8491 14.9645 12.4179 17.2202 13.0188Z" stroke="#1DAEFF" stroke-linejoin="round"/>
<path d="M16.2701 3.58088C16.0004 3.63995 15.8307 3.90635 15.891 4.17589C15.9514 4.44544 16.2189 4.61606 16.4886 4.55698L16.2701 3.58088ZM17.7438 6.856C17.591 7.08528 17.6539 7.39561 17.8841 7.54915C18.1144 7.70269 18.4249 7.64129 18.5777 7.41201L17.7438 6.856ZM16.4886 4.55698C16.9987 4.44525 17.4561 4.71672 17.7356 5.23858C18.0211 5.77175 18.0328 6.42221 17.7438 6.856L18.5777 7.41201C19.1176 6.60173 19.0329 5.54567 18.6176 4.77032C18.1963 3.98366 17.3486 3.34464 16.2701 3.58088L16.4886 4.55698Z" fill="#1DAEFF"/>
<path d="M15.19 1.04505C14.9161 1.07959 14.7229 1.32962 14.7584 1.60351C14.794 1.8774 15.0449 2.07143 15.3189 2.03689L15.19 1.04505ZM19.2099 9.04891C19.0212 9.24983 19.0318 9.56618 19.2335 9.75549C19.4353 9.94481 19.7518 9.9354 19.9404 9.73448L19.2099 9.04891ZM15.3189 2.03689C19.5412 1.50444 21.6527 6.44766 19.2099 9.04891L19.9404 9.73448C22.9977 6.47892 20.3807 0.390485 15.19 1.04505L15.3189 2.03689Z" fill="#1DAEFF"/>
</svg>
