<svg width="21" height="21" viewBox="0 0 21 21" fill="none" xmlns="http://www.w3.org/2000/svg">
<path d="M5.75 1H3C1.89543 1 1 1.89543 1 3V18C1 19.1046 1.89543 20 3 20H18C19.1046 20 20 19.1046 20 18V7.10299C20 6.65743 19.8512 6.22463 19.5773 5.87325L16.3783 1.77027C15.9993 1.28419 15.4174 1 14.8011 1H14.3M5.75 1V7.6C5.75 8.15229 6.19772 8.6 6.75 8.6H13.3C13.8523 8.6 14.3 8.15228 14.3 7.6V1M5.75 1H14.3" stroke="white"/>
<path d="M11.4502 3.85059V5.75059" stroke="white" stroke-linecap="round" stroke-linejoin="round"/>
</svg>
