<svg width="15" height="12" viewBox="0 0 15 12" fill="none" xmlns="http://www.w3.org/2000/svg">
<g clip-path="url(#clip0)">
<rect width="14.1667" height="11.6667" fill="white" fill-opacity="0.3"/>
<path d="M13.9286 10.1102L11.0241 8.25552C12.2096 5.62304 11.3205 2.4521 8.89023 0.896544C6.16359 -0.838498 2.60711 -0.000891506 0.888139 2.69142C-0.830829 5.44355 -0.00098277 9.0333 2.66638 10.7683C5.15592 12.3239 8.35676 11.7854 10.1943 9.57176L13.0987 11.4265C13.3358 11.5461 13.6322 11.4863 13.81 11.247L14.1064 10.8282C14.225 10.5889 14.1657 10.2897 13.9286 10.1102ZM3.25913 9.81107C1.06596 8.43501 0.41394 5.50338 1.83653 3.28971C3.19985 1.07603 6.10432 0.417912 8.29748 1.85381C10.4907 3.22988 11.1427 6.1615 9.77935 8.37518C8.35676 10.5889 5.4523 11.247 3.25913 9.81107Z" fill="#5D5D5D" fill-opacity="0.3"/>
</g>
<defs>
<clipPath id="clip0">
<rect width="14.1667" height="11.6667" fill="white"/>
</clipPath>
</defs>
</svg>
