<svg width="20" height="20" viewBox="0 0 20 20" fill="none" xmlns="http://www.w3.org/2000/svg">
<g clip-path="url(#clip0)">
<path d="M10.0108 20H9.98924C8.8267 19.8924 7.72874 19.6125 6.7169 19.1173C0.129171 15.9742 0 5.76964 0 5.33907C0 5.18837 0.107643 5.0592 0.258342 5.01614C2.32508 4.58557 4.30571 3.8536 6.1141 2.79871C7.42734 2.04521 8.65447 1.11948 9.77395 0.0645856C9.83854 0.0215285 9.92465 0 10.0108 0C10.0969 0 10.183 0.043057 10.2476 0.107643C11.3455 1.3563 12.6372 2.41119 14.0797 3.22928C15.8235 4.19806 17.718 4.82239 19.7201 5.03767C19.8924 5.0592 20 5.18837 20 5.3606C20 5.79117 19.8708 15.9742 13.3046 19.1389C12.2928 19.6125 11.1948 19.9139 10.0323 20.0215C10.0323 20 10.0108 20 10.0108 20ZM0.645856 5.59741C0.710441 7.23358 1.24865 15.7804 6.97524 18.5361C7.90097 18.9882 8.91281 19.2465 9.98924 19.3541C11.0657 19.268 12.0775 18.9882 13.0032 18.5361C18.6868 15.8019 19.268 7.3197 19.3326 5.61894C17.352 5.3606 15.479 4.73627 13.7352 3.76749C12.3143 2.97094 11.0441 1.9591 9.94618 0.775027C8.86975 1.76534 7.66416 2.64801 6.4155 3.37998C4.65016 4.41335 2.69107 5.16684 0.645856 5.59741Z" fill="#1DAEFF"/>
<path d="M8.50306 13.7781C7.38357 13.7781 6.26409 13.3475 5.42448 12.5079C4.6064 11.6898 4.1543 10.5919 4.1543 9.42934C4.1543 8.2668 4.6064 7.16884 5.42448 6.35076C7.12523 4.65001 9.90241 4.65001 11.6032 6.35076C12.4212 7.16884 12.8733 8.2668 12.8733 9.42934C12.8733 10.5919 12.4212 11.6898 11.6032 12.5079C10.742 13.3475 9.62254 13.7781 8.50306 13.7781ZM8.50306 5.7049C7.5558 5.7049 6.58702 6.07089 5.87658 6.80286C5.16614 7.5133 4.77862 8.43902 4.77862 9.42934C4.77862 10.4196 5.16614 11.3669 5.87658 12.0558C7.31899 13.4982 9.68713 13.4982 11.1295 12.0558C11.84 11.3454 12.2275 10.4196 12.2275 9.42934C12.2275 8.43902 11.84 7.49177 11.1295 6.80286C10.4191 6.07089 9.47184 5.7049 8.50306 5.7049Z" fill="#1DAEFF"/>
<path d="M14.2297 16.1679C13.9713 16.1679 13.713 16.0602 13.5192 15.8665L12.0553 14.4025C11.8615 14.2088 11.7539 13.972 11.7539 13.6921C11.7539 13.4337 11.8615 13.1754 12.0553 12.9816L12.0984 12.9386C12.4859 12.5511 13.1102 12.5511 13.4977 12.9386L14.9617 14.4025C15.3492 14.79 15.3492 15.4144 14.9617 15.8019L14.9186 15.8449C14.7464 16.0817 14.488 16.1679 14.2297 16.1679ZM12.8088 13.3261C12.7227 13.3261 12.6366 13.3692 12.572 13.4337L12.5289 13.4768C12.4643 13.5414 12.4213 13.6275 12.4213 13.7136C12.4213 13.7997 12.4643 13.8858 12.5289 13.9504L13.9929 15.4144C14.122 15.5435 14.3589 15.5435 14.488 15.4144L14.5311 15.3713C14.6603 15.2421 14.6603 15.0053 14.5311 14.8762L13.0671 13.4122C12.981 13.3476 12.8949 13.3261 12.8088 13.3261Z" fill="#1DAEFF"/>
<path d="M12.6137 13.0649L11.5938 12.0449L11.1371 12.5016L12.157 13.5215L12.6137 13.0649Z" fill="#1DAEFF"/>
<path d="M5.83309 9.19268C5.81156 9.19268 5.81156 9.19268 5.79003 9.19268C5.6178 9.17115 5.48863 8.99892 5.51016 8.82669C5.55322 8.46071 5.72545 7.7718 6.3713 7.19053C6.9741 6.65231 7.64148 6.52314 7.98594 6.48008C8.15817 6.45856 8.30887 6.60926 8.3304 6.78148C8.35193 6.95371 8.20123 7.10441 8.029 7.12594C7.77066 7.14747 7.25397 7.23358 6.80187 7.66415C6.30672 8.11625 6.17754 8.67599 6.15602 8.91281C6.13449 9.08504 6.00532 9.19268 5.83309 9.19268Z" fill="#1DAEFF"/>
</g>
<defs>
<clipPath id="clip0">
<rect width="20" height="20" fill="white"/>
</clipPath>
</defs>
</svg>
