<svg width="12" height="12" viewBox="0 0 12 12" fill="none" xmlns="http://www.w3.org/2000/svg">
<path d="M4.99854 6.50334C5.2147 6.79233 5.49048 7.03144 5.80718 7.20447C6.12388 7.3775 6.47409 7.48039 6.83406 7.50617C7.19402 7.53195 7.55532 7.48002 7.89344 7.35389C8.23157 7.22775 8.53861 7.03038 8.79375 6.77515L10.3038 5.26512C10.7622 4.79046 11.0159 4.15473 11.0102 3.49485C11.0044 2.83498 10.7397 2.20375 10.2731 1.73713C9.80651 1.27051 9.17528 1.00583 8.5154 1.0001C7.85553 0.994361 7.2198 1.24803 6.74514 1.70647L5.87939 2.56719" stroke="#1DAEFF" stroke-linecap="round" stroke-linejoin="round"/>
<path d="M7.01172 5.49656C6.79556 5.20758 6.51977 4.96846 6.20307 4.79544C5.88637 4.62241 5.53616 4.51951 5.1762 4.49373C4.81624 4.46795 4.45494 4.51989 4.11682 4.64602C3.77869 4.77215 3.47164 4.96953 3.21651 5.22476L1.70647 6.73479C1.24803 7.20945 0.994361 7.84518 1.0001 8.50506C1.00583 9.16493 1.27051 9.79616 1.73713 10.2628C2.20375 10.7294 2.83498 10.9941 3.49485 10.9998C4.15473 11.0055 4.79046 10.7519 5.26512 10.2934L6.12584 9.43272" stroke="#1DAEFF" stroke-linecap="round" stroke-linejoin="round"/>
</svg>
