<svg width="15" height="11" viewBox="0 0 15 11" fill="none" xmlns="http://www.w3.org/2000/svg">
<path d="M7.84921 5.82464C8.1014 5.82464 8.30584 5.6202 8.30584 5.36801C8.30584 5.11582 8.1014 4.91138 7.84921 4.91138C7.59702 4.91138 7.39258 5.11582 7.39258 5.36801C7.39258 5.6202 7.59702 5.82464 7.84921 5.82464Z" stroke="white" stroke-width="0.852381" stroke-linecap="round" stroke-linejoin="round"/>
<path d="M7.39214 8.56455C8.90529 8.56455 10.1319 7.3379 10.1319 5.82476C10.1319 4.31161 8.90529 3.08496 7.39214 3.08496C5.87899 3.08496 4.65234 4.31161 4.65234 5.82476C4.65234 7.3379 5.87899 8.56455 7.39214 8.56455Z" stroke="white" stroke-width="0.852381" stroke-linecap="round" stroke-linejoin="round"/>
<path d="M1 5.82475C1 5.82475 3.28316 1.25842 7.39286 1.25842C11.5026 1.25842 13.7857 5.82475 13.7857 5.82475C13.7857 5.82475 11.5026 10.3911 7.39286 10.3911C3.28316 10.3911 1 5.82475 1 5.82475Z" stroke="white" stroke-width="0.852381" stroke-linecap="round" stroke-linejoin="round"/>
</svg>
